<svg xmlns="http://www.w3.org/2000/svg" viewBox="0 0 80.66 133.88"><defs><style>.cls-1{fill:#86b3e0;}.cls-2{fill:#231815;}.cls-3{fill:#fff;}.cls-4{fill:#82c1ea;}</style></defs><g id="レイヤー_2" data-name="レイヤー 2"><g id="レイヤー_1-2" data-name="レイヤー 1"><circle class="cls-1" cx="40" cy="40" r="40"/><path class="cls-2" d="M70.64,54.6l-3-12.49a27.42,27.42,0,0,0,.52-5.32c0-13.95-10.2-21.3-23.55-23.44a4.63,4.63,0,0,0-8.9,0c-13.35,2.14-23.54,9.49-23.54,23.44a27.87,27.87,0,0,0,.45,5l-.13.06-3,12.44,0,.27a3.85,3.85,0,0,0,2.2,3.83,4,4,0,0,0,1.7.39,4,4,0,0,0,2.81-1.16C22.9,51,35.08,50.3,40,50.3s17.1.72,23.93,7.36a4,4,0,0,0,4.51.77A3.85,3.85,0,0,0,70.64,54.6Z"/><path class="cls-2" d="M40.12,13c9.37,0,17,8.33,17,23.79,0,1.15,0,2.29-.13,3.4a73.24,73.24,0,0,0-33.66,0c-.08-1.11-.12-2.25-.12-3.4C23.17,21.29,30.76,13,40.12,13Z"/><path class="cls-3" d="M32.15,36.75c0,.51,0,1.18,0,1.87a73.8,73.8,0,0,1,15.91,0c0-.69,0-1.36,0-1.87,0-15.46-3.57-23.79-8-23.79S32.15,21.29,32.15,36.75Z"/><path class="cls-3" d="M67,55.33a.53.53,0,0,1-.64-.13c-7.74-7.52-21-8.33-26.33-8.33s-18.59.81-26.33,8.33a.55.55,0,0,1-.64.13.41.41,0,0,1-.25-.36l2.59-10.55a70.11,70.11,0,0,1,49.24-.11L67.22,55A.41.41,0,0,1,67,55.33Z"/><path class="cls-2" d="M64.6,56a8.83,8.83,0,0,0-2.07-3,10.37,10.37,0,0,0-4.59-2.65,13.36,13.36,0,0,0-3.51-.58H26.52a13.36,13.36,0,0,0-3.52.58A10.34,10.34,0,0,0,18.42,53a9,9,0,0,0-2.08,3,9.77,9.77,0,0,0-.84,4A10.14,10.14,0,0,0,25.78,70c5.66,0,11.46-7,12.32-11.72a2.6,2.6,0,0,1,2.37-1.14,2.62,2.62,0,0,1,2.38,1.14C43.71,63,49.51,70,55.17,70A10.14,10.14,0,0,0,65.45,60,9.62,9.62,0,0,0,64.6,56Z"/><path class="cls-3" d="M19.18,62.78a1.19,1.19,0,1,1,1.19-1.19A1.19,1.19,0,0,1,19.18,62.78Z"/><path class="cls-3" d="M22.29,55.82A2,2,0,0,0,20.43,58a1.19,1.19,0,0,1-2.38,0,4.39,4.39,0,0,1,4.24-4.53,1.19,1.19,0,1,1,0,2.38Z"/><path class="cls-4" d="M43,55.21a6,6,0,0,0-5.08,0A5.86,5.86,0,0,0,36.4,52.7h8.14A6,6,0,0,0,43,55.21Z"/><path class="cls-3" d="M49.34,55.82A2,2,0,0,0,47.47,58a1.19,1.19,0,0,1-2.38,0,4.4,4.4,0,0,1,4.25-4.53,1.19,1.19,0,0,1,0,2.38Z"/><path class="cls-3" d="M23.17,36.75c0-15.09,7.23-23.18,16.28-23.76-.24,0-.48,0-.73,0-10.13,0-18.35,8.33-18.35,23.79,0,1.15.05,2.29.14,3.4.9-.2,1.82-.38,2.75-.55Q23.17,38.19,23.17,36.75Z"/><path class="cls-2" d="M8,103.9h7a19.65,19.65,0,0,1-.09,2,6.93,6.93,0,0,1-.36,1.63,6.21,6.21,0,0,1-1,1.88A5.82,5.82,0,0,1,12,110.75a7,7,0,0,1-1.91.84,8.35,8.35,0,0,1-2.2.29A7.87,7.87,0,0,1,5,111.36a6.51,6.51,0,0,1-2.24-1.47,6.77,6.77,0,0,1-1.46-2.27,7.86,7.86,0,0,1-.52-2.92,8,8,0,0,1,.51-2.91,6.48,6.48,0,0,1,1.46-2.26,6.71,6.71,0,0,1,2.28-1.46,8.05,8.05,0,0,1,3-.52,7.36,7.36,0,0,1,3.72.92,6.33,6.33,0,0,1,2.54,2.84L11,102.7a3.39,3.39,0,0,0-1.22-1.6,3,3,0,0,0-1.7-.49,3.37,3.37,0,0,0-1.44.3,3.27,3.27,0,0,0-1.11.84,4.34,4.34,0,0,0-.72,1.33,5.45,5.45,0,0,0-.26,1.72,5.91,5.91,0,0,0,.22,1.61,3.61,3.61,0,0,0,.68,1.27,3,3,0,0,0,1.12.84,3.71,3.71,0,0,0,1.54.3,4.17,4.17,0,0,0,1-.12,2.58,2.58,0,0,0,.88-.38,2.13,2.13,0,0,0,.63-.67,2.68,2.68,0,0,0,.35-1H8Z"/><path class="cls-2" d="M16.65,104.71a7.12,7.12,0,0,1,.56-2.81,7,7,0,0,1,1.55-2.28,6.9,6.9,0,0,1,2.36-1.52,8.62,8.62,0,0,1,6.06,0,7,7,0,0,1,2.38,1.52,6.91,6.91,0,0,1,1.56,2.28,7.36,7.36,0,0,1,0,5.63,6.91,6.91,0,0,1-1.56,2.28,7.14,7.14,0,0,1-2.38,1.52,8.62,8.62,0,0,1-6.06,0,7,7,0,0,1-3.91-3.8A7.13,7.13,0,0,1,16.65,104.71Zm3.69,0a3.57,3.57,0,0,0,.31,1.5,3.65,3.65,0,0,0,2,2,4,4,0,0,0,4.16-.78,3.81,3.81,0,0,0,.83-1.19,3.57,3.57,0,0,0,.31-1.5,3.52,3.52,0,0,0-.31-1.49,3.7,3.7,0,0,0-.83-1.19,4,4,0,0,0-1.23-.78,4,4,0,0,0-2.93,0,4,4,0,0,0-1.22.78,3.83,3.83,0,0,0-.82,1.19A3.52,3.52,0,0,0,20.34,104.71Z"/><path class="cls-2" d="M37.44,97.93v10.58h4.23v3H33.91V97.93Z"/><path class="cls-2" d="M51.26,100.92H47v2.26h3.87v3H47v5.33H43.49V97.93h7.77Z"/><path class="cls-2" d="M9.2,122.92H5v2.26H8.82v3H5v5.33H1.42V119.93H9.2Z"/><path class="cls-2" d="M22.59,133.5H18.2l-3.37-5.22v5.22H11.3V119.93h5.49a5.4,5.4,0,0,1,2,.33,3.86,3.86,0,0,1,1.4.91A4,4,0,0,1,21,122.5a4.84,4.84,0,0,1,.28,1.62,4,4,0,0,1-.75,2.51,3.73,3.73,0,0,1-2.21,1.31ZM14.83,126h.67a2.56,2.56,0,0,0,1.6-.43,1.65,1.65,0,0,0,0-2.48,2.56,2.56,0,0,0-1.6-.43h-.67Z"/><path class="cls-2" d="M27.59,119.93V133.5H24.07V119.93Z"/><path class="cls-2" d="M38.16,122.92H34v2.26h4v3H34v2.34h4.19v3H30.44V119.93h7.72Z"/><path class="cls-2" d="M40.7,133.5V119.93h3.53l6.51,8.3v-8.3h3.51V133.5H50.74l-6.51-8.3v8.3Z"/><path class="cls-2" d="M57.1,119.93h5.21a6.06,6.06,0,0,1,2.61.56A7,7,0,0,1,67,122a6.9,6.9,0,0,1,1.43,2.16,6.5,6.5,0,0,1,.52,2.58,6.66,6.66,0,0,1-.51,2.57,7,7,0,0,1-1.42,2.17,7.11,7.11,0,0,1-2.13,1.49,6.22,6.22,0,0,1-2.62.56H57.1Zm3.52,10.58h.81a4.24,4.24,0,0,0,1.64-.29,3.43,3.43,0,0,0,1.22-.79,3.26,3.26,0,0,0,.75-1.19,4.49,4.49,0,0,0,0-3,3.37,3.37,0,0,0-.76-1.2,3.59,3.59,0,0,0-1.22-.8,4.37,4.37,0,0,0-1.62-.28h-.81Z"/><path class="cls-2" d="M78.7,123.4a4.43,4.43,0,0,0-1.16-.69,3,3,0,0,0-1.11-.23,1.8,1.8,0,0,0-1.12.33,1,1,0,0,0-.43.84.84.84,0,0,0,.22.6,1.87,1.87,0,0,0,.56.4,4.32,4.32,0,0,0,.79.3c.3.08.59.17.88.27a5.47,5.47,0,0,1,2.53,1.54,3.82,3.82,0,0,1,.8,2.51,4.93,4.93,0,0,1-.35,1.89,4,4,0,0,1-1,1.45,4.69,4.69,0,0,1-1.66.93,6.64,6.64,0,0,1-2.22.34,8.18,8.18,0,0,1-4.77-1.53l1.51-2.85a6.15,6.15,0,0,0,1.57,1.05,3.69,3.69,0,0,0,1.53.34,1.83,1.83,0,0,0,1.29-.4,1.2,1.2,0,0,0,.42-.9,1.25,1.25,0,0,0-.11-.53,1.13,1.13,0,0,0-.36-.41,2.88,2.88,0,0,0-.66-.35c-.27-.11-.59-.23-1-.36s-.9-.31-1.34-.48a4,4,0,0,1-1.17-.69,3.25,3.25,0,0,1-.83-1.09,3.86,3.86,0,0,1-.31-1.67,4.8,4.8,0,0,1,.33-1.82,3.92,3.92,0,0,1,.94-1.41,4.21,4.21,0,0,1,1.47-.91,5.8,5.8,0,0,1,2-.32,8.32,8.32,0,0,1,2.1.28,9.51,9.51,0,0,1,2.11.82Z"/></g></g></svg>