<svg xmlns="http://www.w3.org/2000/svg" viewBox="0 0 199.4 200"><defs><style>.cls-1,.cls-2,.cls-3{fill:none;stroke:#231815;stroke-linecap:round;stroke-linejoin:round;stroke-width:5.67px;}.cls-2{stroke-dasharray:0.03 11.37;}.cls-3{stroke-dasharray:0.03 11.4;}.cls-4{fill:#231815;}</style></defs><g id="レイヤー_2" data-name="レイヤー 2"><g id="レイヤー_1-2" data-name="レイヤー 1"><polyline class="cls-1" points="196.57 197.15 196.57 197.16 196.55 197.16"/><line class="cls-2" x1="185.18" y1="197.17" x2="8.53" y2="197.17"/><polyline class="cls-1" points="2.85 197.16 2.83 197.16 2.83 197.15"/><line class="cls-3" x1="2.83" y1="185.75" x2="2.83" y2="8.55"/><polyline class="cls-1" points="2.83 2.85 2.83 2.83 2.85 2.83"/><line class="cls-2" x1="14.22" y1="2.83" x2="190.87" y2="2.83"/><polyline class="cls-1" points="196.55 2.83 196.57 2.83 196.57 2.85"/><line class="cls-3" x1="196.57" y1="14.25" x2="196.57" y2="191.45"/><path class="cls-4" d="M122.89,85.91,91.57,77.52V81c-1.26.32-2.53.68-3.81,1.09-19.47,6.18-23.38,17.26-23.23,25.46.31,17.42,16.24,31.68,27,39.36v15.5a6.8,6.8,0,0,0,6.77,6.84H115.2a8.69,8.69,0,0,0,8.65-8.73v-3.86h.32S149.1,130.15,122.89,85.91ZM91.57,136q-1.32-1.07-2.64-2.22c-7.1-6.23-15.59-15.87-15.78-26.39-.14-7.57,5.6-13.28,17-17L91.57,90Zm30-1.8-26.53-7V97.48l28.12,7.46a3.15,3.15,0,0,1,2.32,3v23.13A3.13,3.13,0,0,1,121.61,134.17Z"/><path class="cls-4" d="M132.56,54.66l-1.07-2.48a3.52,3.52,0,0,0-5.18-1.56l-7.47,4.94a3.31,3.31,0,0,0-1.49,2.78V70.77l-2.48-.66V53.75L125,50.05a3.17,3.17,0,0,0,1.6-4.09l-1.13-3c-.93-2.46-3.54-3.36-5.47-1.89l-7.91,6a4.22,4.22,0,0,0-1.57,3.38V69l-1.29-.35V42.44h0c-.26-3.78-4-9-6.84-10.2-5.45-2.23-10.43-2.63-13.12,4-1.44,3.59,2.46,6.7,7.9,8.93,3.3,1.35,6.42,2.07,8.68,1.62V67.7l-8.42-2.24v-12h0c-.26-3.78-4-9-6.84-10.2C85.05,41,80.06,40.59,77.38,47.27c-1.44,3.58,2.45,6.69,7.89,8.93,3.31,1.35,6.42,2.07,8.68,1.62v6.74l-1-.26a3.13,3.13,0,0,0-3.92,3v3.35a3.14,3.14,0,0,0,2.33,3l33.42,8.82a3.13,3.13,0,0,0,3.91-3V76.22a3.16,3.16,0,0,0-2.33-3l-4.89-1.3V61.06l9.55-3A2.49,2.49,0,0,0,132.56,54.66Z"/></g></g></svg>