<svg xmlns="http://www.w3.org/2000/svg" viewBox="0 0 64.94 64.94"><defs><style>.cls-1{fill:#231815;}.cls-2{fill:#fff;}.cls-3{fill:#040000;}</style></defs><g id="レイヤー_2" data-name="レイヤー 2"><g id="レイヤー_1-2" data-name="レイヤー 1"><circle class="cls-1" cx="32.47" cy="32.47" r="32.47"/><circle class="cls-2" cx="32.47" cy="32.5" r="27.36"/><path class="cls-1" d="M25.58,36.25a5.82,5.82,0,0,1,7.24,4.8.8.8,0,0,0,1.53.21l0-.06a5.87,5.87,0,0,0-1.46-6.39,6.43,6.43,0,0,0-.73-.56h0l0,0,0,0h0a6.88,6.88,0,0,0-.8-.45,5.89,5.89,0,0,0-6.46,1.14l0,0A.8.8,0,0,0,25.58,36.25Z"/><path class="cls-1" d="M24.68,24.26a4.26,4.26,0,0,1,4.62,4.32.58.58,0,0,0,1.07.33l0,0a4.14,4.14,0,0,0-.74-5.25h0l0,0,0,0h0a4.18,4.18,0,0,0-5.29-.38l0,0A.58.58,0,0,0,24.68,24.26Z"/><path class="cls-1" d="M43.76,36.91A4.25,4.25,0,0,0,38,34.34a.58.58,0,0,1-.72-.86l0,0a4.26,4.26,0,0,1,4.49-1.59,3.35,3.35,0,0,1,.63.22h0l0,0h0a3.77,3.77,0,0,1,.59.32,4.26,4.26,0,0,1,1.82,4.4v.05A.58.58,0,0,1,43.76,36.91Z"/><path class="cls-1" d="M15.57,30.48a5.84,5.84,0,0,0-3.78-7.82.8.8,0,0,1,0-1.54l.06,0a5.73,5.73,0,0,1,6.59,3.11h0s0,0,0,.05l0,0h0a5.75,5.75,0,0,1-1.66,7.1l-.05,0A.8.8,0,0,1,15.57,30.48Z"/><path class="cls-1" d="M41.33,45.37a5.82,5.82,0,0,1,8.56,1.49.8.8,0,0,0,1.48-.42v-.07a5.7,5.7,0,0,0-4.8-5.48h-.09a5.62,5.62,0,0,0-.92-.09,5.86,5.86,0,0,0-5.45,3.63l0,.06A.8.8,0,0,0,41.33,45.37Z"/><path class="cls-3" d="M26.84,49.7a6.48,6.48,0,0,1-8-5.33.89.89,0,0,0-1.69-.24l0,.07a6.54,6.54,0,0,0,1.63,7.1,6,6,0,0,0,.81.62h0l.05,0,.05,0h0a6.43,6.43,0,0,0,.89.51,6.54,6.54,0,0,0,7.17-1.27l.05,0A.89.89,0,0,0,26.84,49.7Z"/><path class="cls-3" d="M13.68,37a5.52,5.52,0,0,1-3.59-7.38.76.76,0,0,0-1.15-.9l0,0A5.53,5.53,0,0,0,7,34.63a6.5,6.5,0,0,0,.32.81h0l0,0,0,0h0a5.66,5.66,0,0,0,.44.75,5.56,5.56,0,0,0,5.8,2.17l.06,0A.75.75,0,0,0,13.68,37Z"/><path class="cls-3" d="M36.22,51.91a5.5,5.5,0,0,0,8.19.44.76.76,0,0,1,1.28.7l0,.06a5.55,5.55,0,0,1-4.71,4,5.06,5.06,0,0,1-.87,0H40a6.32,6.32,0,0,1-.86-.11,5.54,5.54,0,0,1-4.25-4.5v-.06A.75.75,0,0,1,36.22,51.91Z"/><path class="cls-1" d="M19.66,33.81a4.24,4.24,0,0,0,3.73,5.1.58.58,0,0,1,.2,1.1l0,0a4.26,4.26,0,0,1-4.69-.85,3.5,3.5,0,0,1-.44-.51h0l0,0,0,0h0A3.62,3.62,0,0,1,18,38a4.26,4.26,0,0,1,.61-4.72l0,0A.58.58,0,0,1,19.66,33.81Z"/><path class="cls-1" d="M36.71,45.57a4.23,4.23,0,0,1-6.16-1.4.58.58,0,0,0-1.09.25v0a4.28,4.28,0,0,0,2.64,4,5.17,5.17,0,0,0,.64.19h.07a4.55,4.55,0,0,0,.66.1,4.28,4.28,0,0,0,4.1-2.43l0,0A.59.59,0,0,0,36.71,45.57Z"/></g></g></svg>