<svg xmlns="http://www.w3.org/2000/svg" viewBox="0 0 118.6 118.6"><defs><style>.cls-1{fill:#86b3e0;}.cls-2{fill:#231815;}.cls-3{fill:#fff;}.cls-4{fill:#82c1ea;}</style></defs><g id="レイヤー_2" data-name="レイヤー 2"><g id="レイヤー_1-2" data-name="レイヤー 1"><circle class="cls-1" cx="59.3" cy="59.3" r="59.3"/><path class="cls-2" d="M104.72,80.94l-4.5-18.51a41.88,41.88,0,0,0,.76-7.89C101,33.86,85.86,23,66.07,19.8a6.86,6.86,0,0,0-13.19,0C33.1,23,18,33.86,18,54.54A42,42,0,0,0,18.65,62l-.19.07L13.94,80.54l-.06.4a5.72,5.72,0,0,0,3.26,5.69,5.93,5.93,0,0,0,6.68-1.15C34,75.63,52,74.57,59.3,74.57s25.35,1.06,35.48,10.91a5.88,5.88,0,0,0,6.67,1.15A5.71,5.71,0,0,0,104.72,80.94Z"/><path class="cls-2" d="M59.48,19.22c13.88,0,25.13,12.35,25.13,35.27,0,1.7-.06,3.38-.18,5a108.41,108.41,0,0,0-49.9,0c-.12-1.65-.19-3.33-.19-5C34.34,31.57,45.6,19.22,59.48,19.22Z"/><path class="cls-3" d="M47.67,54.49c0,.74,0,1.74,0,2.77a107.25,107.25,0,0,1,23.58,0c0-1,0-2,0-2.77,0-22.92-5.29-35.27-11.81-35.27S47.67,31.57,47.67,54.49Z"/><path class="cls-3" d="M99.28,82a.79.79,0,0,1-1-.19c-11.46-11.14-31.11-12.35-39-12.35s-27.56,1.21-39,12.35a.81.81,0,0,1-1,.19.6.6,0,0,1-.37-.52l3.84-15.65a102.25,102.25,0,0,1,36.7-6.69,102.36,102.36,0,0,1,36.3,6.53L99.65,81.5A.58.58,0,0,1,99.28,82Z"/><path class="cls-2" d="M95.77,83.07a13.09,13.09,0,0,0-3.08-4.47,15.28,15.28,0,0,0-6.79-3.92,19.59,19.59,0,0,0-5.21-.87H39.31a19.59,19.59,0,0,0-5.21.87,15.28,15.28,0,0,0-6.79,3.92,13.26,13.26,0,0,0-3.09,4.47A14.45,14.45,0,0,0,23,89a15,15,0,0,0,15.24,14.83c8.39,0,17-10.37,18.27-17.39A3.87,3.87,0,0,1,60,84.71a3.89,3.89,0,0,1,3.52,1.68c1.28,7,9.88,17.39,18.27,17.39A15,15,0,0,0,97,89,14.29,14.29,0,0,0,95.77,83.07Z"/><path class="cls-3" d="M28.44,93.08a1.77,1.77,0,1,1,1.76-1.77A1.77,1.77,0,0,1,28.44,93.08Z"/><path class="cls-3" d="M33.05,82.76a3,3,0,0,0-2.76,3.17,1.77,1.77,0,0,1-3.54,0,6.52,6.52,0,0,1,6.3-6.71,1.77,1.77,0,1,1,0,3.54Z"/><path class="cls-4" d="M63.76,81.84a9,9,0,0,0-7.52,0A8.82,8.82,0,0,0,54,78.12H66A8.82,8.82,0,0,0,63.76,81.84Z"/><path class="cls-3" d="M73.14,82.76a3,3,0,0,0-2.76,3.17,1.77,1.77,0,0,1-3.54,0,6.52,6.52,0,0,1,6.3-6.71,1.77,1.77,0,0,1,0,3.54Z"/><path class="cls-3" d="M34.34,54.49c0-22.37,10.72-34.37,24.14-35.23-.35,0-.71,0-1.07,0-15,0-27.21,12.35-27.21,35.27,0,1.7.07,3.38.2,5,1.35-.3,2.71-.57,4.08-.82C34.4,57.31,34.34,55.91,34.34,54.49Z"/></g></g></svg>