<svg xmlns="http://www.w3.org/2000/svg" viewBox="0 0 340.3 52.5"><defs><style>.cls-1{fill:#231815;}.cls-2{fill:#fff;}</style></defs><g id="レイヤー_2" data-name="レイヤー 2"><g id="レイヤー_1-2" data-name="レイヤー 1"><path class="cls-1" d="M298.35,10.81a28.38,28.38,0,0,0-40.13,40.13c.56.55,1.13,1.06,1.71,1.56h36.72c.58-.5,1.15-1,1.7-1.56A28.38,28.38,0,0,0,298.35,10.81Z"/><path class="cls-2" d="M262.36,20.73c.26-2.12,1.53-3.71,2.83-3.55s2.15,2,1.88,4.14-1.53,3.71-2.83,3.55S262.09,22.85,262.36,20.73Z"/><ellipse class="cls-2" cx="265.89" cy="30.07" rx="2.65" ry="4.32" transform="translate(9.22 105.73) rotate(-22.88)"/><path class="cls-2" d="M256.61,33.08c-.7,0-1.27-1.31-1.27-2.92s.57-2.93,1.27-2.93,1.27,1.31,1.27,2.93S257.31,33.08,256.61,33.08Z"/><path class="cls-2" d="M258.31,21c-.51-.3-.35-1.5.35-2.67s1.69-1.88,2.2-1.58.35,1.51-.35,2.68S258.82,21.33,258.31,21Z"/><path class="cls-2" d="M259.91,37.8c-.73-1.67-.73-3.28,0-3.6s1.91.78,2.64,2.45.73,3.28,0,3.6S260.64,39.47,259.91,37.8Z"/><ellipse class="cls-2" cx="263.16" cy="44.97" rx="1.83" ry="3.27" transform="translate(45.28 199.25) rotate(-45)"/><path class="cls-2" d="M265.21,35.9c1.09-1.08,3.54-.39,5.47,1.54s2.63,4.39,1.54,5.47-3.53.4-5.47-1.54S264.13,37,265.21,35.9Z"/><path class="cls-2" d="M274,47.87c-.32.73-1.93.73-3.6,0s-2.77-1.91-2.45-2.64,1.93-.73,3.6,0S274.27,47.15,274,47.87Z"/><ellipse class="cls-2" cx="278.27" cy="42.45" rx="2.65" ry="4.32" transform="translate(130.98 282.33) rotate(-67.12)"/><path class="cls-2" d="M283.47,44.1c-.16-1.3,1.43-2.57,3.55-2.83s4,.57,4.14,1.88-1.43,2.57-3.55,2.83S283.63,45.4,283.47,44.1Z"/><path class="cls-2" d="M290.51,49.16c-1.18.71-2.38.86-2.68.35s.4-1.49,1.57-2.2,2.37-.86,2.68-.34S291.68,48.46,290.51,49.16Z"/><path class="cls-2" d="M296.4,42.85c-1.46-1-.36-2.35-2.52-3.35-2.92-1.36-4.59,1.55-5.66.85s-1-3-4.24-4-5.26,1.16-6.44.35-.56-1.67-2.14-3.25-2.44-1-3.25-2.14,1.34-3.22.35-6.45-3.27-3.17-4-4.24,2.13-2.7.86-5.66c-.79-1.85-2.2-.61-3.35-2.51s4.68-4.63,4.68-4.63a23.82,23.82,0,0,1,30.72,30.73S298.83,44.5,296.4,42.85Z"/><path class="cls-1" d="M269.92,13.64h0c-.13-.08-.05-.27.11-.27a5.25,5.25,0,0,0,3.7-1.91,3.85,3.85,0,0,0,1-3.6c-.05-.13.14-.25.26-.17h0c1.5.94,1.59,3,.19,4.68S271.43,14.58,269.92,13.64Z"/><path class="cls-1" d="M273.6,23.29h0c-.2.05-.33-.12-.19-.24a3.87,3.87,0,0,0-1.7-6.81c-.18,0-.15-.25.05-.3h0c2.4-.6,4.76.55,5.27,2.58S276,22.69,273.6,23.29Z"/><path class="cls-1" d="M282.1,33.32h0a.18.18,0,0,1-.32-.15,5.05,5.05,0,0,0-5.93-5.93.18.18,0,0,1-.15-.32h0a4.53,4.53,0,0,1,6.41,6.41Z"/><path class="cls-1" d="M293.22,37.41h0c-.05.2-.26.24-.3.05a3.86,3.86,0,0,0-6.8-1.7c-.13.14-.3,0-.25-.19h0c.61-2.41,2.74-3.95,4.77-3.44S293.83,35,293.22,37.41Z"/><path class="cls-1" d="M301.45,34.42a3.84,3.84,0,0,0-3.6,1,5.27,5.27,0,0,0-1.91,3.7c0,.16-.19.24-.26.11h0c-.94-1.5-.37-3.86,1.27-5.26s3.74-1.31,4.68.2h0C301.7,34.28,301.58,34.46,301.45,34.42Z"/><path class="cls-1" d="M224.06,24.55H199.29V34h10.6a12.5,12.5,0,1,1-2-15.53l8.84-8.84a25,25,0,1,0,7.53,17.87A26.11,26.11,0,0,0,224.06,24.55Z"/><polygon class="cls-1" points="102.53 40 102.53 2.5 90.03 2.5 90.03 52.5 120.99 52.5 120.99 40 102.53 40"/><path class="cls-1" d="M249.91,7.72l-2.3-2.31a4.24,4.24,0,1,0-1,1.73l1.91,1.92Z"/><path class="cls-1" d="M252.26,47h-3.15a1.83,1.83,0,0,1-1.72-1.22l-6.28-17.61a2.26,2.26,0,0,0,.74-2.69c0-.08-3.13-7.56-1.81-14.17a3.33,3.33,0,0,0,.18-1s0-.08,0-.13a3.15,3.15,0,0,0-.32-1.36,3.22,3.22,0,0,0-4.32-1.48c-.38.18-9.2,4.65-9.2,17.36,0,11.55,6.44,23.33,6.72,23.82A3.21,3.21,0,0,0,235.82,50a3.28,3.28,0,0,0,3.28-3.28,5,5,0,0,0-.08-.66,88.26,88.26,0,0,1-3-20.88c0-1,.05-2,.12-2.9a35.2,35.2,0,0,0,1.56,5,2.25,2.25,0,0,0,1.72,1.33l6.65,18.64.22,1.51A1.5,1.5,0,0,0,247.75,50h4a1.14,1.14,0,0,0,1.06-.72l.38-.94A1,1,0,0,0,252.26,47Z"/><path class="cls-1" d="M5.31,37.08C8,39.59,12,42,16.28,42c2.51,0,4-.78,4.81-1.64a4.29,4.29,0,0,0,1.22-3A3.75,3.75,0,0,0,21,34.42c-1.22-1.07-3.09-1.57-6.17-2.51l-3.23-1c-2-.65-5-1.72-6.89-3.88-2.44-2.65-2.72-6-2.72-8.46C1.94,12.69,4.23,9.1,6.31,7,8.75,4.58,12.77,2.5,18.58,2.5A33.73,33.73,0,0,1,33.36,6.37l-4.95,9.69c-3.73-2.94-6.53-3.23-8.18-3.23a6,6,0,0,0-4.09,1.44,3.51,3.51,0,0,0-1.22,2.58A3.17,3.17,0,0,0,15.57,19c.36.43,1.22,1.29,4.16,2.15l3.8,1.15c3,.93,6.17,2,8.68,4.73s3.08,5.24,3.08,8.54c0,4.38-1.07,8.61-4.52,12-4.08,4.09-9,4.88-14.13,4.88a25.56,25.56,0,0,1-9.39-1.58A33.27,33.27,0,0,1,0,47.12Z"/><path class="cls-1" d="M87.21,27.5a25,25,0,1,1-25-25A25,25,0,0,1,87.21,27.5Zm-12.5,0A12.5,12.5,0,1,0,62.21,40,12.51,12.51,0,0,0,74.71,27.5Z"/><path class="cls-1" d="M171.23,27.5a25,25,0,1,1-25-25A25,25,0,0,1,171.23,27.5Zm-12.5,0A12.5,12.5,0,1,0,146.23,40,12.51,12.51,0,0,0,158.73,27.5Z"/><polygon class="cls-1" points="321.84 40 321.84 2.5 309.34 2.5 309.34 52.5 340.3 52.5 340.3 40 321.84 40"/><rect class="cls-1" x="226.37" y="50" width="80.29" height="2.5"/></g></g></svg>