<svg xmlns="http://www.w3.org/2000/svg" viewBox="0 0 199.4 200"><defs><style>.cls-1,.cls-2,.cls-3{fill:none;stroke-linecap:round;stroke-linejoin:round;stroke-width:5.67px;}.cls-1,.cls-2,.cls-3,.cls-5{stroke:#231815;}.cls-2{stroke-dasharray:0.03 11.37;}.cls-3{stroke-dasharray:0.03 11.4;}.cls-4,.cls-5{fill:#231815;}.cls-5{font-size:21px;stroke-miterlimit:10;font-family:HiraMaruPro-W4-83pv-RKSJ-H, Hiragino Maru Gothic Pro;}</style></defs><g id="レイヤー_2" data-name="レイヤー 2"><g id="レイヤー_1-2" data-name="レイヤー 1"><polyline class="cls-1" points="196.57 197.15 196.57 197.16 196.55 197.16"/><line class="cls-2" x1="185.18" y1="197.17" x2="8.53" y2="197.17"/><polyline class="cls-1" points="2.85 197.16 2.83 197.16 2.83 197.15"/><line class="cls-3" x1="2.83" y1="185.75" x2="2.83" y2="8.55"/><polyline class="cls-1" points="2.83 2.85 2.83 2.83 2.85 2.83"/><line class="cls-2" x1="14.22" y1="2.83" x2="190.87" y2="2.83"/><polyline class="cls-1" points="196.55 2.83 196.57 2.83 196.57 2.85"/><line class="cls-3" x1="196.57" y1="14.25" x2="196.57" y2="191.45"/><path class="cls-4" d="M164.85,79.52,147,60.91l-8.35,8h0L110.48,96.13l-3,17.17A3.21,3.21,0,0,0,111.1,117l17.21-2.29L156.5,87.57h0ZM146.91,66.44l12.42,13-3.07,3-12.42-13Zm-30.24,45.9-4.26-4.44,1.49-8.64a18.3,18.3,0,0,1,11.34,11.94Zm3.64-15-2.59-2.71,23.35-22.52,2.6,2.71Zm13.86-8.58,11.88-11.46,2.59,2.71L136.76,91.51Z"/><path class="cls-4" d="M128.39,48H53V144h75.37V119.31l-16.7,2.22a8.76,8.76,0,0,1-1,.07,7.69,7.69,0,0,1-5.9-2.77l-.06-.07H73.26a2.76,2.76,0,0,1,0-5.51H103c0-.24,0-.49.09-.73l3.22-18.63,22.11-21.31Zm-35.51,55.6H73.26a2.76,2.76,0,0,1,0-5.51H92.88a2.76,2.76,0,0,1,0,5.51Zm7-17.76H73.26a2.76,2.76,0,0,1,0-5.51H99.92a2.76,2.76,0,0,1,0,5.51Z"/><text class="cls-5" transform="translate(33.6 170.42)">掲示板を見る</text></g></g></svg>