<svg xmlns="http://www.w3.org/2000/svg" viewBox="0 0 199.4 200"><defs><style>.cls-1,.cls-2{fill:#231815;}.cls-2,.cls-3,.cls-4,.cls-5{stroke:#231815;}.cls-2{stroke-miterlimit:10;}.cls-3,.cls-4,.cls-5{fill:none;stroke-linecap:round;stroke-linejoin:round;stroke-width:5.67px;}.cls-4{stroke-dasharray:0.03 11.37;}.cls-5{stroke-dasharray:0.03 11.4;}</style></defs><g id="レイヤー_2" data-name="レイヤー 2"><g id="レイヤー_1-2" data-name="レイヤー 1"><path class="cls-1" d="M121.5,75.91,90.18,67.52V71c-1.26.32-2.53.68-3.81,1.09C66.9,78.24,63,89.32,63.14,97.52c.31,17.42,16.24,31.68,27,39.36v15.5A6.8,6.8,0,0,0,97,159.22h16.87a8.69,8.69,0,0,0,8.64-8.73v-3.86h.32S147.71,120.15,121.5,75.91ZM90.18,126c-.87-.71-1.76-1.45-2.64-2.22C80.45,117.52,72,107.88,71.76,97.36c-.14-7.57,5.6-13.28,17-17L90.18,80Zm30-1.8-26.52-7V87.48l28.11,7.46a3.15,3.15,0,0,1,2.32,3v23.13A3.13,3.13,0,0,1,120.22,124.17Z"/><path class="cls-1" d="M131.17,44.66l-1.07-2.48a3.52,3.52,0,0,0-5.18-1.56l-7.47,4.94A3.31,3.31,0,0,0,116,48.34V60.77l-2.48-.66V43.75l10.09-3.7a3.16,3.16,0,0,0,1.6-4.09L124,33c-.92-2.46-3.53-3.36-5.47-1.89l-7.9,6a4.2,4.2,0,0,0-1.58,3.38V59l-1.29-.35V32.44h0c-.26-3.78-4-9-6.84-10.2C95.48,20,90.5,19.61,87.82,26.29c-1.44,3.59,2.45,6.7,7.89,8.93,3.31,1.35,6.42,2.07,8.68,1.62V57.7L96,55.46v-12h0c-.27-3.78-4-9-6.85-10.2C83.66,31,78.68,30.59,76,37.27c-1.44,3.58,2.45,6.69,7.9,8.93,3.3,1.35,6.41,2.07,8.68,1.62v6.74l-1-.26a3.12,3.12,0,0,0-3.91,3v3.35A3.13,3.13,0,0,0,90,63.74l33.42,8.82a3.13,3.13,0,0,0,3.91-3V66.22a3.15,3.15,0,0,0-2.32-3l-4.89-1.3V51.06l9.54-3A2.49,2.49,0,0,0,131.17,44.66Z"/><path class="cls-2" d="M49.74,167.71c-.44,0-.71-.4-.71-.88s.29-.9.71-.9l14.24,0a2.2,2.2,0,0,1,1.85.77,1.89,1.89,0,0,1,.35,1.12,3.05,3.05,0,0,1-.42,1.49,22.09,22.09,0,0,1-7.24,7.32A35.93,35.93,0,0,1,61,179.68a1,1,0,0,1,.16.54,1.13,1.13,0,0,1-.46.87.94.94,0,0,1-1.34-.32,50.34,50.34,0,0,0-7.25-8.27.83.83,0,0,1-.31-.61,1,1,0,0,1,.92-.86,1.11,1.11,0,0,1,.68.27,44.54,44.54,0,0,1,4,3.93,18.74,18.74,0,0,0,6.47-6.45,1.28,1.28,0,0,0,.19-.59c0-.33-.25-.5-.78-.5Z"/><path class="cls-2" d="M80.59,181c0,.53-.4.8-.92.8s-1-.25-1-.82v-9.47A37.79,37.79,0,0,1,71.25,175a1.17,1.17,0,0,1-.46.09.81.81,0,0,1-.78-.59,1.65,1.65,0,0,1,0-.31.89.89,0,0,1,.63-.84,34.87,34.87,0,0,0,8.08-3.91,25.75,25.75,0,0,0,5.71-4.85,1,1,0,0,1,.71-.34,1,1,0,0,1,.61.21.87.87,0,0,1,.38.7.88.88,0,0,1-.23.56,29.11,29.11,0,0,1-5.27,4.6Z"/><path class="cls-2" d="M100.14,168.78c2.54,3,5.73,6.34,8.59,9.09a1.14,1.14,0,0,1,.36.8,1.17,1.17,0,0,1-.28.71.82.82,0,0,1-.67.36,1,1,0,0,1-.71-.36c-2.92-2.87-6.09-6.36-8.59-9.34-1-1.15-1.13-1.26-1.51-1.26s-.57.17-1.22,1.18a66.11,66.11,0,0,1-4,5.62,1,1,0,0,1-.79.45,1.16,1.16,0,0,1-.72-.3.88.88,0,0,1-.34-.67,1.25,1.25,0,0,1,.32-.78,47.94,47.94,0,0,0,4.12-5.58c1-1.66,1.59-1.95,2.49-1.95S98.61,167,100.14,168.78Zm8-1.22a2.38,2.38,0,1,1-2.39-2.35A2.38,2.38,0,0,1,108.16,167.56Zm-3.8,0a1.41,1.41,0,0,0,2.82,0,1.41,1.41,0,0,0-2.82,0Z"/><path class="cls-2" d="M112.7,174a.79.79,0,0,1-.82-.9.84.84,0,0,1,.84-1h15.94a.84.84,0,0,1,.84,1,.79.79,0,0,1-.82.9Z"/><path class="cls-2" d="M139.71,172.54a.87.87,0,0,1,.42.74,1.42,1.42,0,0,1-.15.56.89.89,0,0,1-.8.44,1,1,0,0,1-.57-.19,29.52,29.52,0,0,0-4.72-2.56.68.68,0,0,1-.46-.65,1,1,0,0,1,.14-.5.78.78,0,0,1,.72-.49,1.23,1.23,0,0,1,.44.09A34.48,34.48,0,0,1,139.71,172.54Zm10.37-3.09a2.23,2.23,0,0,1,0,.34,16,16,0,0,1-5.74,8.57,19,19,0,0,1-9.49,3.23h-.12a.87.87,0,0,1-.95-.86.39.39,0,0,1,0-.15.79.79,0,0,1,.84-.82,17.3,17.3,0,0,0,8.74-2.94,13.72,13.72,0,0,0,5-7.53.81.81,0,0,1,.8-.72,1,1,0,0,1,.34,0A.85.85,0,0,1,150.08,169.45Zm-8.48-1.4a1,1,0,0,1-.13.48.92.92,0,0,1-.82.48.82.82,0,0,1-.48-.14,30,30,0,0,0-4.6-2.44.71.71,0,0,1-.48-.69.8.8,0,0,1,.14-.46.91.91,0,0,1,.78-.49,1.14,1.14,0,0,1,.46.09,28.94,28.94,0,0,1,4.68,2.41A.94.94,0,0,1,141.6,168.05Zm5.52-4.1a.69.69,0,0,1,.54.23,12.92,12.92,0,0,1,1.81,2.36,1.06,1.06,0,0,1,.15.54.65.65,0,0,1-.7.59.55.55,0,0,1-.54-.36,13.93,13.93,0,0,0-1.66-2.29.73.73,0,0,1-.21-.5A.62.62,0,0,1,147.12,164Zm2.37-1.26a.82.82,0,0,1,.57.25,12.94,12.94,0,0,1,1.72,2.29,1.22,1.22,0,0,1,.12.53.65.65,0,0,1-.65.59.58.58,0,0,1-.54-.34,12.5,12.5,0,0,0-1.58-2.23.62.62,0,0,1-.25-.54A.64.64,0,0,1,149.49,162.69Z"/><polyline class="cls-3" points="196.57 197.15 196.57 197.16 196.55 197.16"/><line class="cls-4" x1="185.18" y1="197.17" x2="8.53" y2="197.17"/><polyline class="cls-3" points="2.85 197.16 2.83 197.16 2.83 197.15"/><line class="cls-5" x1="2.83" y1="185.75" x2="2.83" y2="8.55"/><polyline class="cls-3" points="2.83 2.85 2.83 2.83 2.85 2.83"/><line class="cls-4" x1="14.22" y1="2.83" x2="190.87" y2="2.83"/><polyline class="cls-3" points="196.55 2.83 196.57 2.83 196.57 2.85"/><line class="cls-5" x1="196.57" y1="14.25" x2="196.57" y2="191.45"/></g></g></svg>