<svg xmlns="http://www.w3.org/2000/svg" viewBox="0 0 199.4 200"><defs><style>.cls-1,.cls-2,.cls-3{fill:none;stroke-linecap:round;stroke-linejoin:round;stroke-width:5.67px;}.cls-1,.cls-2,.cls-3,.cls-5{stroke:#231815;}.cls-2{stroke-dasharray:0.03 11.37;}.cls-3{stroke-dasharray:0.03 11.4;}.cls-4,.cls-5{fill:#231815;}.cls-5{stroke-miterlimit:10;}</style></defs><g id="レイヤー_2" data-name="レイヤー 2"><g id="レイヤー_1-2" data-name="レイヤー 1"><polyline class="cls-1" points="196.57 197.15 196.57 197.16 196.55 197.16"/><line class="cls-2" x1="185.18" y1="197.17" x2="8.53" y2="197.17"/><polyline class="cls-1" points="2.85 197.16 2.83 197.16 2.83 197.15"/><line class="cls-3" x1="2.83" y1="185.75" x2="2.83" y2="8.55"/><polyline class="cls-1" points="2.83 2.85 2.83 2.83 2.85 2.83"/><line class="cls-2" x1="14.22" y1="2.83" x2="190.87" y2="2.83"/><polyline class="cls-1" points="196.55 2.83 196.57 2.83 196.57 2.85"/><line class="cls-3" x1="196.57" y1="14.25" x2="196.57" y2="191.45"/><path class="cls-4" d="M123.88,92.51a169.18,169.18,0,0,1-21.61,6.38,1.64,1.64,0,0,1-.38,0,1.76,1.76,0,0,1-.37-3.49A166.74,166.74,0,0,0,123,89.08a128,128,0,0,0-10.65-26.2,4.28,4.28,0,0,1,.18-4.15L121,45.45a4.84,4.84,0,0,0-1.17-6.58L99.1,23.7a4.17,4.17,0,0,0-2.69-1,4.37,4.37,0,0,0-3.85,6.59L85.21,38.9a10.4,10.4,0,0,0-2.69-.37A10.27,10.27,0,0,0,72.21,48.76,10.14,10.14,0,0,0,73.65,54L53.87,79.76a2.62,2.62,0,0,0,.2,3.42l4.84,5a2.8,2.8,0,0,0,4.05,0l2.53-2.74a2.42,2.42,0,0,0-.52-3.7l-5.69-2.73,17-22a10.32,10.32,0,0,0,16.53-8.15,10.18,10.18,0,0,0-4-8.12l6.49-8.47,11.11,11.08L90.83,59.47a13.24,13.24,0,0,0-3.12,14.34c3.65,9.25,5.74,20.81,5.74,33.33,0,15.74-3.44,29.88-9,39.91a4.92,4.92,0,0,0-.7,2.58,2.6,2.6,0,0,0,.13.78c1.94,5.63,6.62,5.08,8.87,2.91,8.31-8.13,15.24-25.22,18.64-42a120.08,120.08,0,0,1,2.47,24.3,128.12,128.12,0,0,1-.75,13.5,5.47,5.47,0,0,0,5.22,5.52,5.22,5.22,0,0,0,5.28-4.69,119.44,119.44,0,0,0,3.74-29.6A114.64,114.64,0,0,0,123.88,92.51Z"/><path class="cls-5" d="M45.16,160.64a2.82,2.82,0,0,1,1.53.37,2.33,2.33,0,0,1-.52-1.49,2.37,2.37,0,1,1,2.37,2.38,2.41,2.41,0,0,1-1.32-.4,2.09,2.09,0,0,1,.4,1.4,3.92,3.92,0,0,1,0,.59c-.9,6.38-5.31,11.17-12.28,12.89a1.53,1.53,0,0,1-.4.07.73.73,0,0,1-.77-.59.8.8,0,0,1,0-.34.87.87,0,0,1,.68-.88c6-1.6,10.16-5.56,10.85-11.21a1.62,1.62,0,0,0,0-.3c0-.54-.27-.71-.92-.71H32.46c-.49,0-.76-.38-.76-.9a.79.79,0,0,1,.76-.88Zm2-1.12a1.41,1.41,0,0,0,2.82,0,1.41,1.41,0,0,0-2.82,0Z"/><path class="cls-5" d="M55.39,159.75a1,1,0,0,1,1.89,0l-.09,12.64c0,.84.32,1.2,1,1.2a1.27,1.27,0,0,0,.27,0A14.11,14.11,0,0,0,68.34,167a.88.88,0,0,1,.78-.51,1,1,0,0,1,.5.17.88.88,0,0,1,.4.76,1.4,1.4,0,0,1-.14.54,15.7,15.7,0,0,1-11.45,7.54l-.56,0A2.71,2.71,0,0,1,56.1,175a2.62,2.62,0,0,1-.77-2.09Z"/><path class="cls-5" d="M84.37,175.48c0,.52-.4.8-.93.8s-.94-.25-.94-.82V166A37.6,37.6,0,0,1,75,169.45a1.11,1.11,0,0,1-.46.09.8.8,0,0,1-.77-.59,1.19,1.19,0,0,1-.05-.32.89.89,0,0,1,.63-.83,34.92,34.92,0,0,0,8.09-3.91A25.75,25.75,0,0,0,88.17,159a1,1,0,0,1,.71-.34,1,1,0,0,1,.61.21.88.88,0,0,1,.38.7,1,1,0,0,1-.23.56,29.5,29.5,0,0,1-5.27,4.6Z"/><path class="cls-5" d="M95.31,165.23a.56.56,0,0,1-.17,0,.79.79,0,0,1-.8-.69.47.47,0,0,1,0-.17.83.83,0,0,1,.65-.9l4.58-.71-.69-3.43a.45.45,0,0,1,0-.23.77.77,0,0,1,.71-.73.75.75,0,0,1,.21,0,.88.88,0,0,1,.92.65l.7,3.46,8.08-1.28a3.7,3.7,0,0,1,.63-.06,2,2,0,0,1,1.57.61,1.66,1.66,0,0,1,.45,1.24,4.25,4.25,0,0,1-.32,1.47,12.24,12.24,0,0,1-5.14,5.6,1.21,1.21,0,0,1-.59.17.77.77,0,0,1-.69-.4,1,1,0,0,1-.13-.48.84.84,0,0,1,.42-.74,10.69,10.69,0,0,0,4.41-4.68,1.2,1.2,0,0,0,.15-.54c0-.34-.21-.53-.65-.53a1.75,1.75,0,0,0-.32,0l-7.54,1.26L104,175.44v.19a.83.83,0,0,1-.75.86.41.41,0,0,1-.15,0,.85.85,0,0,1-.88-.69l-2.29-11.36Z"/><path class="cls-5" d="M116.48,168.51a.79.79,0,0,1-.82-.9.84.84,0,0,1,.84-1h15.94a.84.84,0,0,1,.84,1,.79.79,0,0,1-.82.9Z"/><path class="cls-5" d="M141.51,161.87c.36,0,.57.28.57.7s-.21.71-.57.71H140.1a13.41,13.41,0,0,0,2,3.53.78.78,0,0,1,.23.54.68.68,0,0,1-.21.49.59.59,0,0,1-.46.23.74.74,0,0,1-.59-.34,12.6,12.6,0,0,1-1.3-3c.12,1.11.27,2.69.27,3.55v8.44c0,.4-.27.63-.76.63s-.75-.23-.75-.63V169.5a39.39,39.39,0,0,1,.31-4.18,18.7,18.7,0,0,1-2.18,6,.71.71,0,0,1-.59.34,1,1,0,0,1-.46-.15.82.82,0,0,1-.27-.61.86.86,0,0,1,.12-.44,20.2,20.2,0,0,0,2.86-7.14h-2c-.37,0-.58-.31-.58-.71s.21-.7.58-.7h2.21V158.2c0-.4.29-.61.75-.61s.76.21.76.61v3.67Zm7.73,9.56a9.85,9.85,0,0,0,5.56,4.2.7.7,0,0,1,.5.69,1.26,1.26,0,0,1,0,.27.75.75,0,0,1-.71.55.8.8,0,0,1-.3-.06,11.28,11.28,0,0,1-6.15-5,8.69,8.69,0,0,1-5.73,5,1.42,1.42,0,0,1-.42.08.69.69,0,0,1-.65-.44,1.13,1.13,0,0,1-.06-.36.65.65,0,0,1,.44-.65c2.77-1,4.41-2.33,5.16-4.28h-2.5c-1.07,0-1.55-.42-1.55-1.45v-2.56c0-1.07.48-1.51,1.55-1.51h3.2v-1.75h-1.73c-.33,0-.58-.25-.58-.71a.61.61,0,0,1,.58-.67h5a.61.61,0,0,1,.59.67c0,.46-.25.71-.59.71H149v1.75h3.34c1.07,0,1.58.44,1.58,1.51V170c0,1-.51,1.45-1.58,1.45Zm5.69-8.21a.73.73,0,0,1,.42.65.92.92,0,0,1-.09.38.74.74,0,0,1-.67.46.82.82,0,0,1-.42-.13,18.77,18.77,0,0,1-5.77-5c-.09-.1-.15-.16-.23-.16s-.17.06-.28.19a19.76,19.76,0,0,1-5.1,5.1.84.84,0,0,1-.42.12.73.73,0,0,1-.61-.37,1,1,0,0,1-.1-.4.68.68,0,0,1,.33-.61,16.85,16.85,0,0,0,5-5,1.37,1.37,0,0,1,1.17-.61,1.4,1.4,0,0,1,1.1.5A18.28,18.28,0,0,0,154.93,163.22Zm-7.73,6.93a17.1,17.1,0,0,0,.29-2.92h-2.62c-.4,0-.57.1-.57.5v2c0,.38.17.47.57.47Zm4.62,0c.4,0,.56-.09.56-.47v-2c0-.4-.16-.5-.56-.5h-2.9a22,22,0,0,1-.29,2.92Z"/><path class="cls-5" d="M165.45,171.3c-2.6.13-5.12.19-7.27.21a.72.72,0,0,1-.77-.73.65.65,0,0,1,.69-.74c1.72,0,3.59,0,5.54,0,.38-.27.74-.55,1.09-.82a24.8,24.8,0,0,0-3.88-2.6.57.57,0,0,1-.34-.51.79.79,0,0,1,.19-.46.77.77,0,0,1,.59-.27,1.1,1.1,0,0,1,.48.12l1.22.74a13.79,13.79,0,0,0,2.16-2.16H159.7c-.42,0-.65.14-.65.61v1.7c0,.42-.32.63-.8.63s-.8-.21-.8-.65v-2c0-1.17.57-1.68,1.83-1.68h6.19v-1.84h-7.62c-.36,0-.57-.34-.57-.74s.21-.69.57-.69h7.62v-1c0-.49.23-.7.76-.7s.79.21.79.7v1h8.15c.36,0,.55.29.55.69s-.19.74-.55.74H167v1.84h6.64c1.26,0,1.82.51,1.82,1.68v2c0,.44-.31.65-.79.65s-.8-.21-.8-.63v-1.72c0-.47-.23-.61-.67-.61H167a20.69,20.69,0,0,1-2.85,2.92c.6.42,1.19.86,1.76,1.32a24.09,24.09,0,0,0,3-3,.91.91,0,0,1,.7-.38.85.85,0,0,1,.44.13.72.72,0,0,1,.4.6.52.52,0,0,1-.15.38,33.19,33.19,0,0,1-4.51,3.89c2.05-.09,4.13-.17,6.19-.32-.46-.46-.9-.86-1.32-1.22a.5.5,0,0,1-.19-.4.61.61,0,0,1,.31-.52.87.87,0,0,1,.48-.15.92.92,0,0,1,.59.21,33.63,33.63,0,0,1,3.66,3.7,1,1,0,0,1,.19.52.68.68,0,0,1-.3.55.69.69,0,0,1-.48.17.8.8,0,0,1-.63-.3c-.34-.4-.74-.88-1.16-1.34-2,.17-4,.29-6.08.4v5.37c0,.38-.32.63-.8.63s-.8-.25-.8-.63Zm-1.89,1.64a.71.71,0,0,1-.19.46,15.3,15.3,0,0,1-4.77,3.11.67.67,0,0,1-.33.08.79.79,0,0,1-.72-.48.87.87,0,0,1-.08-.38A.77.77,0,0,1,158,175a14.15,14.15,0,0,0,4.16-2.63.88.88,0,0,1,.59-.25.83.83,0,0,1,.52.17A.77.77,0,0,1,163.56,172.94Zm6.36-1a1,1,0,0,1,.65.29A14.55,14.55,0,0,0,175,175a.78.78,0,0,1,.53.73.87.87,0,0,1-.09.36.79.79,0,0,1-.78.46,1,1,0,0,1-.42-.08,16.93,16.93,0,0,1-4.93-3.26.72.72,0,0,1-.23-.52.76.76,0,0,1,.36-.61A.91.91,0,0,1,169.92,171.91Z"/></g></g></svg>