<svg xmlns="http://www.w3.org/2000/svg" viewBox="0 0 199.4 200"><defs><style>.cls-1,.cls-5{fill:#231815;}.cls-2,.cls-3,.cls-4{fill:none;stroke-linecap:round;stroke-linejoin:round;stroke-width:5.67px;}.cls-2,.cls-3,.cls-4,.cls-5{stroke:#231815;}.cls-3{stroke-dasharray:0.03 11.37;}.cls-4{stroke-dasharray:0.03 11.4;}.cls-5{stroke-miterlimit:10;stroke-width:1.5px;}</style></defs><g id="レイヤー_2" data-name="レイヤー 2"><g id="レイヤー_1-2" data-name="レイヤー 1"><path class="cls-1" d="M165.39,94.33H140.74V42H108.91a54.91,54.91,0,0,0-50.1,32.6L50.54,93.22,47.06,95.3a21.22,21.22,0,0,0-10.33,18.22v4.12a15.5,15.5,0,1,0,28.24,9h58.38a15.48,15.48,0,1,0,29.76-6.19ZM154.3,98.94l-2.09,3.57H121V98.94ZM49.49,135.46a9,9,0,1,1,9-9A9,9,0,0,1,49.49,135.46ZM117,85.84H99.7v9H105l-8.61,24H78.78L63.41,103.47,86.55,80.81l3.33,3.34a2.49,2.49,0,0,0,3.55,0,2.52,2.52,0,0,0,0-3.56L83.37,70.5a2.51,2.51,0,0,0-3.55,3.56l3.33,3.34L60,100.05,56.8,96.83l8.57-19.25a47.7,47.7,0,0,1,43.54-28.34h24.65V94.33H122.49a4.52,4.52,0,0,0,2.26-2.82L129,75.23a4.49,4.49,0,1,0-8.67-2.34Zm21.85,49.62a9,9,0,1,1,9-9A9,9,0,0,1,138.82,135.46ZM121,110.27v-3.56H154.3l-2.09,3.56Z"/><polyline class="cls-2" points="196.57 197.15 196.57 197.16 196.55 197.16"/><line class="cls-3" x1="185.18" y1="197.17" x2="8.53" y2="197.17"/><polyline class="cls-2" points="2.85 197.16 2.83 197.16 2.83 197.15"/><line class="cls-4" x1="2.83" y1="185.75" x2="2.83" y2="8.55"/><polyline class="cls-2" points="2.83 2.85 2.83 2.83 2.85 2.83"/><line class="cls-3" x1="14.22" y1="2.83" x2="190.87" y2="2.83"/><polyline class="cls-2" points="196.55 2.83 196.57 2.83 196.57 2.85"/><line class="cls-4" x1="196.57" y1="14.25" x2="196.57" y2="191.45"/><path class="cls-5" d="M48.49,160.9a2.08,2.08,0,0,1,1.95.94,2.19,2.19,0,0,1,.28,1.14,4,4,0,0,1-.13,1c-1,4.5-5.23,8.13-11.06,9a.65.65,0,0,1-.19,0,.83.83,0,0,1-.88-.78.38.38,0,0,1,0-.18.82.82,0,0,1,.74-.84c5.06-.78,8.65-3.76,9.57-7.48a1.32,1.32,0,0,0,.07-.42c0-.4-.23-.63-.93-.63H35.56a.89.89,0,0,1,0-1.74Zm.19-4.91a.79.79,0,0,1,.74.86.83.83,0,0,1-.74.88H37.17a.82.82,0,0,1-.73-.88.78.78,0,0,1,.73-.86Z"/><path class="cls-5" d="M69.53,158.4c1.81,0,2.52.88,2.52,2.39v.28a12.49,12.49,0,0,1-3.21,8.21,13.91,13.91,0,0,1-7.52,3.86,1.18,1.18,0,0,1-.27,0,.81.81,0,0,1-.84-.59,2.19,2.19,0,0,1,0-.31.83.83,0,0,1,.69-.86,12.45,12.45,0,0,0,7-3.72,10.74,10.74,0,0,0,2.31-6.59v-.17c0-.65-.25-.88-1-.88H58.91c-.8,0-1,.19-1,.88v3.34a.8.8,0,0,1-.9.84.87.87,0,0,1-1-.82v-3.72a2,2,0,0,1,2.25-2.16h4.62v-2.33a.81.81,0,0,1,.92-.8c.57,0,1,.27,1,.82v2.31Z"/><path class="cls-5" d="M93.64,159.39a2.33,2.33,0,0,1,0,.37,16.32,16.32,0,0,1-5.78,9.18,18.52,18.52,0,0,1-9.67,3.28H78.1a.91.91,0,0,1-1-.84v-.11a.86.86,0,0,1,.84-.92,17.08,17.08,0,0,0,8.77-3,14.94,14.94,0,0,0,5-8.09c.15-.57.46-.8.84-.8a1.19,1.19,0,0,1,.32.05A.86.86,0,0,1,93.64,159.39Zm-10.12,1.55a1.05,1.05,0,0,1,.25.67,1.09,1.09,0,0,1-.29.72.86.86,0,0,1-.65.29,1.1,1.1,0,0,1-.78-.4,25,25,0,0,0-4.39-3.84.81.81,0,0,1-.33-.67,1,1,0,0,1,.23-.61.83.83,0,0,1,.67-.32,1.19,1.19,0,0,1,.63.21A20.94,20.94,0,0,1,83.52,160.94Z"/><path class="cls-5" d="M102.78,172.36c0,.57-.4.8-.93.8s-.92-.23-.92-.8V156.05c0-.57.36-.8.92-.8s.93.23.93.82v5.4A63.11,63.11,0,0,1,113,165.22a.93.93,0,0,1,.57.89,1.35,1.35,0,0,1-.08.46.94.94,0,0,1-.84.61.78.78,0,0,1-.44-.11,58.44,58.44,0,0,0-9.45-3.74Zm6.51-16.29a.67.67,0,0,1,.54.23,13.21,13.21,0,0,1,1.81,2.35,1.1,1.1,0,0,1,.15.55.65.65,0,0,1-.7.59.55.55,0,0,1-.54-.36,13.52,13.52,0,0,0-1.66-2.29.75.75,0,0,1-.21-.5A.61.61,0,0,1,109.29,156.07Zm2.31-1.34a.76.76,0,0,1,.56.25,11.87,11.87,0,0,1,1.73,2.29,1.14,1.14,0,0,1,.12.52.65.65,0,0,1-.65.59.61.61,0,0,1-.55-.34,12.75,12.75,0,0,0-1.57-2.22.65.65,0,0,1-.25-.55A.63.63,0,0,1,111.6,154.73Z"/><path class="cls-5" d="M128.59,166.08a3.23,3.23,0,0,1-3.49,2.44,3.53,3.53,0,0,1-3.74-3.59,3.83,3.83,0,0,1,4.14-3.76,3.37,3.37,0,0,1,2.5,1c0-.76,0-1.83,0-2.82-3.09.07-6.3.19-9.35.38h-.08a.76.76,0,0,1-.78-.82v0a.76.76,0,0,1,.76-.8c3-.16,6.24-.27,9.43-.33,0-.74,0-1.47,0-2.1a.71.71,0,0,1,.79-.76c.61,0,.89.25.89.8v2c1.13,0,2.24-.05,3.31-.05.76,0,1.51,0,2.23,0a.75.75,0,0,1,.86.83v.07c0,.5-.3.73-.78.73-1.24,0-2.54,0-3.9,0-.57,0-1.14,0-1.72,0v4.35a6.11,6.11,0,0,1,.6,2.75,5.88,5.88,0,0,1-3.4,5.67,11.6,11.6,0,0,1-3.34,1.11.65.65,0,0,1-.21,0,.8.8,0,0,1-.84-.69,1,1,0,0,1,0-.23.81.81,0,0,1,.68-.84c3.75-.7,5.6-2.46,5.6-4.94v-.4Zm-3-3.5a2.33,2.33,0,0,0-2.51,2.27,2.05,2.05,0,0,0,2.28,2.14,2.38,2.38,0,0,0,2.48-2.52C127.85,163.33,127,162.58,125.6,162.58Z"/><path class="cls-5" d="M145.32,163.46a11.38,11.38,0,0,1,4.66-1.09c3.78,0,6.09,2,6.09,4.85,0,3.53-3.21,5.75-8.33,5.75-3.11,0-5.12-1.3-5.12-3.25,0-1.64,1.36-2.84,3.42-2.84a4.35,4.35,0,0,1,4.49,4.14c2.14-.51,3.74-1.83,3.74-3.78s-1.64-3.44-4.62-3.44c-2.79,0-5.33.92-8.78,3.06a1.1,1.1,0,0,1-.56.15.88.88,0,0,1-.76-.4.79.79,0,0,1-.15-.46.9.9,0,0,1,.49-.8,91.65,91.65,0,0,0,10.77-7.87c-2.29.19-5.5.31-8.19.33a.76.76,0,0,1-.78-.82c0-.48.25-.86.74-.86,2.83,0,6.42-.1,9.21-.29h.19a1.12,1.12,0,0,1,1,.52,1.17,1.17,0,0,1,.17.61,1.21,1.21,0,0,1-.4.86,44.93,44.93,0,0,1-5.48,4.33c-.59.4-1.3.88-1.89,1.22Zm.63,4.85c-1.09,0-1.72.57-1.72,1.34,0,1,1.26,1.77,3.13,1.79.5,0,1,0,1.53,0A3,3,0,0,0,146,168.31Z"/></g></g></svg>