<svg xmlns="http://www.w3.org/2000/svg" viewBox="0 0 199.4 200"><defs><style>.cls-1,.cls-3{fill:#231815;}.cls-2{fill:#fff;}.cls-3,.cls-4,.cls-5,.cls-6{stroke:#231815;}.cls-3{stroke-miterlimit:10;}.cls-4,.cls-5,.cls-6{fill:none;stroke-linecap:round;stroke-linejoin:round;stroke-width:5.67px;}.cls-5{stroke-dasharray:0.03 11.37;}.cls-6{stroke-dasharray:0.03 11.4;}</style></defs><g id="レイヤー_2" data-name="レイヤー 2"><g id="レイヤー_1-2" data-name="レイヤー 1"><circle class="cls-1" cx="100.31" cy="59.94" r="32.47"/><path class="cls-2" d="M73.5,61.66c0,.23,0,.46,0,.68s.07.64.11,1A10.47,10.47,0,0,0,84,72.23a10.8,10.8,0,0,0,3.11-.48,3.62,3.62,0,0,1,3.73,1,12.07,12.07,0,0,0,18.88,0,3.62,3.62,0,0,1,3.73-1,10.85,10.85,0,0,0,3.11.48A10.62,10.62,0,0,0,126.9,64h0a27.69,27.69,0,0,0,.3-4,26.9,26.9,0,0,0-53.79,0c0,.58,0,1.16.06,1.73Z"/><path class="cls-2" d="M105.14,81.42a6.49,6.49,0,0,1-9.65,0,.89.89,0,0,0-1.54.74v.07a6.51,6.51,0,0,0,5.28,5,5.84,5.84,0,0,0,1,.08h.11a6,6,0,0,0,1-.08,6.53,6.53,0,0,0,5.28-5v-.07A.89.89,0,0,0,105.14,81.42Z"/><path class="cls-2" d="M87.14,78.07a5.51,5.51,0,0,1-7.07-4.16.76.76,0,0,0-1.45-.12l0,.06a5.54,5.54,0,0,0,1.7,6,5.79,5.79,0,0,0,.72.5h0l0,0,0,0h0a5.16,5.16,0,0,0,.78.39,5.55,5.55,0,0,0,6-1.4l0,0A.76.76,0,0,0,87.14,78.07Z"/><path class="cls-2" d="M114.18,78.07a5.5,5.5,0,0,0,7.07-4.16.76.76,0,0,1,1.45-.12l0,.06a5.54,5.54,0,0,1-1.7,6,5.79,5.79,0,0,1-.72.5h0l0,0,0,0h0a5.16,5.16,0,0,1-.78.39,5.55,5.55,0,0,1-6-1.4l0,0A.76.76,0,0,1,114.18,78.07Z"/><path class="cls-1" d="M96.66,67.9a5.84,5.84,0,0,1,8.69,0,.8.8,0,0,0,1.39-.67v-.06A5.89,5.89,0,0,0,102,62.65a7.4,7.4,0,0,0-.92-.07H101a7.26,7.26,0,0,0-.92.07,5.87,5.87,0,0,0-4.75,4.52v.06A.8.8,0,0,0,96.66,67.9Z"/><path class="cls-1" d="M89.29,58.41a4.21,4.21,0,0,1,3.35-.87,4.27,4.27,0,0,1,2.88,1.91.58.58,0,0,0,1.07-.31v0a4.27,4.27,0,0,0-2.86-3.81,5.59,5.59,0,0,0-.65-.16H93a4.62,4.62,0,0,0-.66-.06,4.27,4.27,0,0,0-4,2.67l0,0A.59.59,0,0,0,89.29,58.41Z"/><path class="cls-1" d="M112.18,58.41a4.21,4.21,0,0,0-3.35-.87A4.27,4.27,0,0,0,106,59.45a.58.58,0,0,1-1.08-.31v0a4.27,4.27,0,0,1,2.86-3.81,5.59,5.59,0,0,1,.65-.16h.07a4.91,4.91,0,0,1,.67-.06,4.27,4.27,0,0,1,4,2.67l0,0A.59.59,0,0,1,112.18,58.41Z"/><path class="cls-1" d="M85.13,68.62a5.85,5.85,0,0,0-7.48-4.43.8.8,0,0,1-.85-1.28l0,0a5.87,5.87,0,0,1,6.38-1.46,6.41,6.41,0,0,1,.83.41h0l0,0,.05,0h0a6.48,6.48,0,0,1,.76.53,5.88,5.88,0,0,1,1.78,6.31l0,.06A.8.8,0,0,1,85.13,68.62Z"/><path class="cls-1" d="M114.83,66.8a5.84,5.84,0,0,1,8-3.49.8.8,0,0,0,1-1.17l0,0a5.87,5.87,0,0,0-6.16-2.23,6,6,0,0,0-.87.31h0l0,0,0,0h0a5.72,5.72,0,0,0-3.35,6.47v.06A.8.8,0,0,0,114.83,66.8Z"/><path class="cls-1" d="M100.31,97.48a29.61,29.61,0,0,1-14.43-3.75v9.9h28.87v-9.9A29.62,29.62,0,0,1,100.31,97.48Z"/><path class="cls-1" d="M111.48,106.73s-22.7-.23-22.57,0c7.22,14,8.45,32.52,8.65,37.19h0a2.59,2.59,0,1,0,5.18,0h0A89.58,89.58,0,0,1,111.48,106.73Z"/><path class="cls-3" d="M51.23,154.83c-.51,0-.78-.36-.78-.93a.76.76,0,0,1,.78-.84l10.68-.1a2.07,2.07,0,0,1,1.87.84,2,2,0,0,1,.28,1,3.92,3.92,0,0,1-.24,1.21,19.51,19.51,0,0,1-3.33,5.46,37.23,37.23,0,0,1,5.83,5.23,1.17,1.17,0,0,1,.3.74,1,1,0,0,1-.28.67,1,1,0,0,1-.73.31,1,1,0,0,1-.76-.33,34.47,34.47,0,0,0-5.54-5.3,23.31,23.31,0,0,1-8.88,5.82,1.56,1.56,0,0,1-.5.11.77.77,0,0,1-.78-.53,1,1,0,0,1-.06-.36,1,1,0,0,1,.63-.9,23.61,23.61,0,0,0,7.45-4.53,17.75,17.75,0,0,0,4.74-6.83,1.37,1.37,0,0,0,.11-.46c0-.31-.23-.46-.76-.46Z"/><path class="cls-3" d="M83.88,153.5c1.62,0,2.39.88,2.39,2.56v9.14c0,1.68-.77,2.54-2.39,2.54H72c-.5,0-.79-.36-.79-.9s.25-.89.82-.89H83.36c.81,0,1-.23,1-1v-8.72c0-.75-.21-1-1-1h-11c-.54,0-.8-.32-.8-.86s.26-.93.82-.93Z"/><path class="cls-3" d="M106.22,152.7a2.16,2.16,0,0,1,1.87.8,2,2,0,0,1,.36,1.18,3.26,3.26,0,0,1-.32,1.32,10.88,10.88,0,0,1-5.5,5.1,1.14,1.14,0,0,1-.46.11.77.77,0,0,1-.71-.4.92.92,0,0,1-.13-.46.87.87,0,0,1,.53-.8,9.72,9.72,0,0,0,4.57-4.07,1.34,1.34,0,0,0,.15-.53c0-.29-.21-.5-.69-.5H92.07c-.5,0-.75-.32-.75-.86s.27-.89.75-.89Zm-6,4.5c0,3.67-.48,5.75-1.32,7.43a9.2,9.2,0,0,1-5.46,4.62,1.19,1.19,0,0,1-.45.08.78.78,0,0,1-.75-.54,1.18,1.18,0,0,1-.09-.42.79.79,0,0,1,.61-.76,7.47,7.47,0,0,0,4.5-3.82c.71-1.53,1.07-3.3,1.07-6.55a.85.85,0,0,1,1-.9A.81.81,0,0,1,100.2,157.2Z"/><path class="cls-3" d="M113.68,164.8v.1a18.13,18.13,0,0,1-1,4.71.77.77,0,0,1-.73.5,1.23,1.23,0,0,1-.36-.06.77.77,0,0,1-.48-.7.85.85,0,0,1,.06-.31,15.46,15.46,0,0,0,1-4.37c.15-1.59.21-3.82.21-7a1.72,1.72,0,0,1,0-.33,1,1,0,0,1-.48.12.74.74,0,0,1-.49-.15.7.7,0,0,1-.25-.52.75.75,0,0,1,.19-.48,14,14,0,0,0,2.75-5.11.64.64,0,0,1,.65-.48,1.77,1.77,0,0,1,.3,0c.38.09.58.23.58.51a1.76,1.76,0,0,1,0,.25,4.63,4.63,0,0,1-.21.59h2.27c.78,0,1.22.44,1.22,1.05a1.26,1.26,0,0,1-.09.48,14.65,14.65,0,0,1-1.07,2.27h.84c1.07,0,1.56.48,1.56,1.7v10.69c0,1.21-.72,1.65-2.08,1.65a7.51,7.51,0,0,1-1.64-.16.62.62,0,0,1-.46-.65.71.71,0,0,1,0-.21.6.6,0,0,1,.59-.57.52.52,0,0,1,.17,0,7.59,7.59,0,0,0,1.09.13c.75,0,.92-.09.92-.59V164.8Zm1.16-11.3a18.63,18.63,0,0,1-1.35,2.48,3.45,3.45,0,0,1,.48,0h2.29a11.67,11.67,0,0,0,1-2,.68.68,0,0,0,0-.17c0-.14-.1-.23-.29-.23Zm-1,7.48c0,.84,0,1.66,0,2.5h1.8V161Zm.56-3.7c-.35,0-.56.09-.56.48v1.94h1.76v-2.42Zm2.57,2.42h1.8v-1.94c0-.39-.19-.48-.57-.48h-1.23Zm1.8,1.28h-1.8v2.5h1.8Zm2.56-8a.63.63,0,0,1-.61-.71c0-.45.24-.68.61-.68H128c1.22,0,1.74.63,1.72,1.66a10.78,10.78,0,0,1-.38,2.9c-.25.84-.77,1.41-2.18,1.41a8,8,0,0,1-1.57-.15.61.61,0,0,1-.53-.63,1.09,1.09,0,0,1,0-.25c.09-.38.3-.55.53-.55a.47.47,0,0,1,.15,0,4.92,4.92,0,0,0,1.11.15c.65,0,.9-.19,1-.71a8.67,8.67,0,0,0,.23-1.94c0-.42-.15-.52-.59-.52h-2.39a6.7,6.7,0,0,1-3.36,5.14.85.85,0,0,1-.44.13.73.73,0,0,1-.63-.36.8.8,0,0,1-.13-.44.7.7,0,0,1,.38-.61,4.76,4.76,0,0,0,2.64-3.86Zm1.49,8.71a12.05,12.05,0,0,1-.67,1.39.74.74,0,0,1-.65.38.84.84,0,0,1-.38-.09.67.67,0,0,1-.4-.61.72.72,0,0,1,.11-.35,10.85,10.85,0,0,0,1.32-3.26.6.6,0,0,1,.63-.52.75.75,0,0,1,.21,0c.38.08.59.31.59.61a.78.78,0,0,1,0,.21c-.06.25-.15.52-.23.79H125v-1.53c0-.42.29-.63.76-.63s.75.21.75.63v1.53h3c.38,0,.59.28.59.7s-.21.73-.59.73h-3v2.44h3.57c.4,0,.59.27.59.71s-.19.74-.59.74h-3.57v4c0,.4-.33.63-.75.63s-.76-.23-.76-.63v-4h-3.76c-.35,0-.59-.32-.59-.74s.24-.71.59-.71H125v-2.44Z"/><path class="cls-3" d="M139.57,154.91c.36,0,.57.31.57.73s-.21.74-.57.74h-2.24a14.34,14.34,0,0,0,2.5,3.82,1,1,0,0,1,.21.55.81.81,0,0,1-.24.54.71.71,0,0,1-.5.19.8.8,0,0,1-.59-.29,12.55,12.55,0,0,1-1.84-3.53,21.41,21.41,0,0,1,.31,3.42v8.63c0,.4-.31.63-.8.63s-.75-.23-.75-.63v-7.26a30.91,30.91,0,0,1,.31-4.24,17.77,17.77,0,0,1-2.64,6.06.86.86,0,0,1-.68.4.75.75,0,0,1-.5-.21.61.61,0,0,1-.25-.52,1.09,1.09,0,0,1,.23-.63,20.77,20.77,0,0,0,3.23-6.93h-2.39c-.38,0-.59-.32-.59-.74s.21-.73.59-.73h2.67v-3.57c0-.4.29-.63.77-.63s.8.23.8.63v3.57ZM151,157.53a.66.66,0,0,1,.61.74c0,.44-.23.8-.61.8h-2.8v10.56c0,.4-.29.63-.81.63s-.82-.23-.82-.63V159.07h-4c-.11,4.83-1.09,8.37-2.63,10.68a.77.77,0,0,1-.67.36.9.9,0,0,1-.56-.19.72.72,0,0,1-.32-.59.9.9,0,0,1,.19-.56c1.64-2.38,2.41-5.8,2.41-11.05v-3a1.69,1.69,0,0,1,1.52-1.93,30.09,30.09,0,0,0,7-1.83.9.9,0,0,1,.38-.08.82.82,0,0,1,.73.46,1.14,1.14,0,0,1,.11.44.69.69,0,0,1-.4.65,30.47,30.47,0,0,1-7.12,1.85c-.44.06-.61.23-.61.84v2.45Z"/><polyline class="cls-4" points="196.57 197.15 196.57 197.16 196.55 197.16"/><line class="cls-5" x1="185.18" y1="197.17" x2="8.53" y2="197.17"/><polyline class="cls-4" points="2.85 197.16 2.83 197.16 2.83 197.15"/><line class="cls-6" x1="2.83" y1="185.75" x2="2.83" y2="8.55"/><polyline class="cls-4" points="2.83 2.85 2.83 2.83 2.85 2.83"/><line class="cls-5" x1="14.22" y1="2.83" x2="190.87" y2="2.83"/><polyline class="cls-4" points="196.55 2.83 196.57 2.83 196.57 2.85"/><line class="cls-6" x1="196.57" y1="14.25" x2="196.57" y2="191.45"/></g></g></svg>