<svg xmlns="http://www.w3.org/2000/svg" viewBox="0 0 199.4 200"><defs><style>.cls-1,.cls-2,.cls-3{fill:none;stroke:#231815;stroke-linecap:round;stroke-linejoin:round;stroke-width:5.67px;}.cls-2{stroke-dasharray:0.03 11.37;}.cls-3{stroke-dasharray:0.03 11.4;}.cls-4{fill:#231815;}</style></defs><g id="レイヤー_2" data-name="レイヤー 2"><g id="レイヤー_1-2" data-name="レイヤー 1"><polyline class="cls-1" points="196.57 197.15 196.57 197.16 196.55 197.16"/><line class="cls-2" x1="185.18" y1="197.17" x2="8.53" y2="197.17"/><polyline class="cls-1" points="2.85 197.16 2.83 197.16 2.83 197.15"/><line class="cls-3" x1="2.83" y1="185.75" x2="2.83" y2="8.55"/><polyline class="cls-1" points="2.83 2.85 2.83 2.83 2.85 2.83"/><line class="cls-2" x1="14.22" y1="2.83" x2="190.87" y2="2.83"/><polyline class="cls-1" points="196.55 2.83 196.57 2.83 196.57 2.85"/><line class="cls-3" x1="196.57" y1="14.25" x2="196.57" y2="191.45"/><path class="cls-4" d="M150.69,101.21c-1.4-.76-3.47-1.85-6-3.17l-17.94,19a5.56,5.56,0,0,1-4,1.73H86.91A6.69,6.69,0,0,1,82.1,107.4l26.84-27.81L82.37,65.85c-13.08-7-25.13,10.86-13.7,20.33a25,25,0,0,0,3.58,2.47,23.74,23.74,0,0,0,14.53,3l-.1,1.22c-15.06,12-32-4.89-39-12.55a9.58,9.58,0,0,0-11.85,9.31v37.88h.23l7.43,8.18,7.43-8.18h0l7.43,8.18,7.43-8.18h0l7.43,8.18,7.43-8.18h0l7.43,8.18,7.43-8.18h0l7.43,8.18,6.6-7.26,6.6,7.26,7.43-8.18h0l7.43,8.18,7.43-8.18h0l7.43,8.18,7.95-8.78C171,123.68,162.42,107.53,150.69,101.21Z"/><path class="cls-4" d="M130.51,90.81l-12,12a4.85,4.85,0,0,0,6.86,6.85l14.18-14.18Z"/><path class="cls-4" d="M114.36,82.48l-15,15a4.85,4.85,0,0,0,6.86,6.85l17.23-17.23Z"/></g></g></svg>