<svg xmlns="http://www.w3.org/2000/svg" viewBox="0 0 199.4 200"><defs><style>.cls-1{fill:#231815;}.cls-2,.cls-3,.cls-4{fill:none;stroke:#231815;stroke-linecap:round;stroke-linejoin:round;stroke-width:5.67px;}.cls-3{stroke-dasharray:0.03 11.37;}.cls-4{stroke-dasharray:0.03 11.4;}</style></defs><g id="レイヤー_2" data-name="レイヤー 2"><g id="レイヤー_1-2" data-name="レイヤー 1"><path class="cls-1" d="M162.17,90a22.94,22.94,0,0,0-5.38-7.82,26.64,26.64,0,0,0-11.88-6.88,34.38,34.38,0,0,0-9.09-1.53v0H63.52v0a34.45,34.45,0,0,0-9.09,1.53,26.61,26.61,0,0,0-11.87,6.88A23,23,0,0,0,37.17,90,25.4,25.4,0,0,0,35,100.29c0,14.35,11.92,26,26.62,26S91.29,108.1,93.53,95.8c.74-1.54,3.06-3,6.14-3s5.4,1.41,6.15,3c2.23,12.3,17.26,30.47,31.92,30.47s26.62-11.63,26.62-26A25.41,25.41,0,0,0,162.17,90ZM44.53,107.52a3.1,3.1,0,1,1,3.08-3.1A3.09,3.09,0,0,1,44.53,107.52Zm8.06-18.08c-2.66,0-4.83,2.49-4.83,5.56a3.09,3.09,0,1,1-6.17,0c0-6.48,4.93-11.76,11-11.76a3.1,3.1,0,0,1,0,6.2Zm53.65-1.61a15.71,15.71,0,0,0-13.14,0,15.5,15.5,0,0,0-4-6.52h21.08A15.5,15.5,0,0,0,106.24,87.83Zm16.39,1.61c-2.66,0-4.83,2.49-4.83,5.56a3.09,3.09,0,1,1-6.17,0c0-6.48,4.93-11.76,11-11.76a3.1,3.1,0,0,1,0,6.2Z"/><path class="cls-1" d="M32.62,95.86H28.84a4.87,4.87,0,0,0,0,9.74h3.78Z"/><path class="cls-1" d="M166.78,95.86h3.78a4.87,4.87,0,0,1,0,9.74h-3.78Z"/><polyline class="cls-2" points="196.57 197.15 196.57 197.16 196.55 197.16"/><line class="cls-3" x1="185.18" y1="197.17" x2="8.53" y2="197.17"/><polyline class="cls-2" points="2.85 197.16 2.83 197.16 2.83 197.15"/><line class="cls-4" x1="2.83" y1="185.75" x2="2.83" y2="8.55"/><polyline class="cls-2" points="2.83 2.85 2.83 2.83 2.85 2.83"/><line class="cls-3" x1="14.22" y1="2.83" x2="190.87" y2="2.83"/><polyline class="cls-2" points="196.55 2.83 196.57 2.83 196.57 2.85"/><line class="cls-4" x1="196.57" y1="14.25" x2="196.57" y2="191.45"/></g></g></svg>