<svg xmlns="http://www.w3.org/2000/svg" viewBox="0 0 118.6 118.6"><defs><style>.cls-1{fill:#6bbc6e;}.cls-2{fill:#231815;}.cls-3{fill:#fff;}</style></defs><g id="レイヤー_2" data-name="レイヤー 2"><g id="レイヤー_1-2" data-name="レイヤー 1"><circle class="cls-1" cx="59.3" cy="59.3" r="59.3"/><path class="cls-2" d="M98.09,79.77a14.22,14.22,0,0,0,14.22-14.22V57.73a8,8,0,0,0-8-7.93H49A14.41,14.41,0,0,1,34.7,37.22l-3.82-30a59.71,59.71,0,0,0-12.53,9.19l2.31,18.12A13.53,13.53,0,0,1,7.23,49.8a1.64,1.64,0,0,0-1.65,1.61c0,2.23-.08,6-.08,6.46v7.68A14.22,14.22,0,0,0,19.71,79.77Z"/><circle class="cls-2" cx="61.34" cy="78.03" r="29.7"/><path class="cls-3" d="M50.06,95.24l0,0a5.18,5.18,0,0,1-5.64,1.31,4.5,4.5,0,0,1-.73-.36h0l0,0,0,0h0a6.11,6.11,0,0,1-.67-.46,5.2,5.2,0,0,1-1.6-5.57l0-.06a.71.71,0,0,1,1.36.11,5.16,5.16,0,0,0,6.62,3.9A.71.71,0,0,1,50.06,95.24Z"/><path class="cls-3" d="M67.6,97.94l0,.06a6,6,0,0,1-5.89,4.77h-.11A6,6,0,0,1,55.69,98l0-.06a.83.83,0,0,1,1.45-.7,6.06,6.06,0,0,0,9,0A.83.83,0,0,1,67.6,97.94Z"/><path class="cls-3" d="M81,95.73a6.11,6.11,0,0,1-.67.46h0a.05.05,0,0,1,0,0l0,0h0a4.5,4.5,0,0,1-.73.36,5.18,5.18,0,0,1-5.64-1.31l0,0a.71.71,0,0,1,.76-1.13,5.16,5.16,0,0,0,6.62-3.9.71.71,0,0,1,1.36-.11l0,.06A5.2,5.2,0,0,1,81,95.73Z"/><path class="cls-3" d="M86.54,80.88h0a10,10,0,0,1-9.71,7.76,10.11,10.11,0,0,1-2.91-.45,3.37,3.37,0,0,0-3.49.92,12.21,12.21,0,0,1-8.84,4.27,12.19,12.19,0,0,1-8.84-4.27,3.38,3.38,0,0,0-3.49-.92,10.16,10.16,0,0,1-2.91.45,9.8,9.8,0,0,1-9.68-8.37c0-.29-.07-.59-.1-.89s0-.43,0-.64h0c0-.54-.06-1.08-.06-1.62a25.19,25.19,0,0,1,50.37,0A25.65,25.65,0,0,1,86.54,80.88Z"/><path class="cls-2" d="M58.22,84.58a5.47,5.47,0,0,1,8.13,0,.75.75,0,0,0,1.3-.63v0a5.5,5.5,0,0,0-4.45-4.23,5,5,0,0,0-.86-.06h-.09a5,5,0,0,0-.86.06,5.5,5.5,0,0,0-4.45,4.23v0A.75.75,0,0,0,58.22,84.58Z"/><path class="cls-2" d="M51.31,75.69a4,4,0,0,1,5.84,1,.54.54,0,0,0,1-.29v0a4,4,0,0,0-2.68-3.56,3.61,3.61,0,0,0-.61-.15h-.07a4.2,4.2,0,0,0-.62-.06,4,4,0,0,0-3.7,2.5l0,0A.54.54,0,0,0,51.31,75.69Z"/><path class="cls-2" d="M72.75,75.69a4,4,0,0,0-5.84,1,.54.54,0,0,1-1-.29v0a4,4,0,0,1,2.68-3.56,3.39,3.39,0,0,1,.61-.15h.07a4.2,4.2,0,0,1,.62-.06,4,4,0,0,1,3.7,2.5v0A.54.54,0,0,1,72.75,75.69Z"/><path class="cls-2" d="M47.41,85.26a5.45,5.45,0,0,0-7-4.15.75.75,0,0,1-.8-1.2l0,0a5.5,5.5,0,0,1,6-1.36,6.26,6.26,0,0,1,.78.38h0a.05.05,0,0,0,0,0l0,0h0a5.4,5.4,0,0,1,2.37,6.4l0,0A.75.75,0,0,1,47.41,85.26Z"/><path class="cls-2" d="M75.23,83.55a5.46,5.46,0,0,1,7.45-3.27.75.75,0,0,0,.94-1.09l0,0a5.51,5.51,0,0,0-5.77-2.09,7.06,7.06,0,0,0-.81.29h0l0,0,0,0h0a5,5,0,0,0-.76.4,5.53,5.53,0,0,0-2.38,5.66l0,.06A.75.75,0,0,0,75.23,83.55Z"/></g></g></svg>