<svg xmlns="http://www.w3.org/2000/svg" viewBox="0 0 86.22 133.88"><defs><style>.cls-1{fill:#6bbc6e;}.cls-2{fill:#231815;}.cls-3{fill:#fff;}</style></defs><g id="レイヤー_2" data-name="レイヤー 2"><g id="レイヤー_1-2" data-name="レイヤー 1"><circle class="cls-1" cx="43.96" cy="40" r="40"/><path class="cls-2" d="M70.12,53.81a9.59,9.59,0,0,0,9.59-9.59V38.94a5.37,5.37,0,0,0-5.37-5.35H37a9.7,9.7,0,0,1-9.63-8.49L24.79,4.89a40,40,0,0,0-8.45,6.19L17.9,23.3A9.14,9.14,0,0,1,8.83,33.59a1.11,1.11,0,0,0-1.11,1.09c0,1.5-.06,4-.06,4.35v5.19a9.6,9.6,0,0,0,9.59,9.59Z"/><circle class="cls-2" cx="45.34" cy="52.63" r="20.03"/><path class="cls-3" d="M37.72,64.24l0,0a3.51,3.51,0,0,1-3.81.89,2.82,2.82,0,0,1-.49-.25h0l0,0h0a3.37,3.37,0,0,1-.46-.31,3.51,3.51,0,0,1-1.07-3.76v0a.48.48,0,0,1,.92.07,3.48,3.48,0,0,0,4.46,2.63A.47.47,0,0,1,37.72,64.24Z"/><path class="cls-3" d="M49.55,66.06v0a4.1,4.1,0,0,1-3.33,3.16,3.52,3.52,0,0,1-.64,0H45.5a3.63,3.63,0,0,1-.65,0,4.11,4.11,0,0,1-3.33-3.16v0a.56.56,0,0,1,1-.47,4.1,4.1,0,0,0,6.1,0A.56.56,0,0,1,49.55,66.06Z"/><path class="cls-3" d="M58.61,64.57a4,4,0,0,1-.45.31h0l0,0h0a2.92,2.92,0,0,1-.5.25,3.49,3.49,0,0,1-3.8-.89l0,0a.48.48,0,0,1,.51-.76,3.49,3.49,0,0,0,4.47-2.63.47.47,0,0,1,.91-.07l0,0A3.52,3.52,0,0,1,58.61,64.57Z"/><path class="cls-3" d="M62.33,54.56h0a6.72,6.72,0,0,1-6.55,5.23,6.94,6.94,0,0,1-2-.3,2.27,2.27,0,0,0-2.35.62,8.25,8.25,0,0,1-6,2.88,8.25,8.25,0,0,1-6-2.88,2.27,2.27,0,0,0-2.35-.62,6.94,6.94,0,0,1-2,.3,6.62,6.62,0,0,1-6.53-5.64l-.06-.6c0-.15,0-.29,0-.44h0c0-.36,0-.72,0-1.09a17,17,0,1,1,34,0A17.62,17.62,0,0,1,62.33,54.56Z"/><path class="cls-2" d="M43.23,57.05a3.69,3.69,0,0,1,5.48,0,.51.51,0,0,0,.88-.42v0a3.71,3.71,0,0,0-3-2.85,3.77,3.77,0,0,0-.58,0h-.06a3.86,3.86,0,0,0-.58,0,3.71,3.71,0,0,0-3,2.85v0A.51.51,0,0,0,43.23,57.05Z"/><path class="cls-2" d="M38.57,51.06a2.67,2.67,0,0,1,3.93.66.37.37,0,0,0,.68-.2v0a2.69,2.69,0,0,0-1.81-2.4A1.89,1.89,0,0,0,41,49h0a3,3,0,0,0-.43,0A2.71,2.71,0,0,0,38,50.62v0A.37.37,0,0,0,38.57,51.06Z"/><path class="cls-2" d="M53,51.06a2.68,2.68,0,0,0-3.94.66.37.37,0,0,1-.68-.2v0a2.71,2.71,0,0,1,1.81-2.4,2.22,2.22,0,0,1,.41-.1h0a3,3,0,0,1,.42,0,2.69,2.69,0,0,1,2.49,1.68l0,0A.37.37,0,0,1,53,51.06Z"/><path class="cls-2" d="M35.94,57.51a3.69,3.69,0,0,0-4.72-2.8.51.51,0,0,1-.54-.81l0,0a3.7,3.7,0,0,1,4-.92,3.26,3.26,0,0,1,.53.26h0l0,0h0a4.71,4.71,0,0,1,.48.34,3.71,3.71,0,0,1,1.12,4v0A.51.51,0,0,1,35.94,57.51Z"/><path class="cls-2" d="M54.7,56.36a3.67,3.67,0,0,1,5-2.2.5.5,0,0,0,.63-.74l0,0a3.71,3.71,0,0,0-3.9-1.4,3.13,3.13,0,0,0-.54.19h-.06a2.86,2.86,0,0,0-.52.27,3.72,3.72,0,0,0-1.6,3.81v0A.5.5,0,0,0,54.7,56.36Z"/><path class="cls-2" d="M4.14,111.5H.61V97.93H6.23a4.77,4.77,0,0,1,3.5,1.19,5.23,5.23,0,0,1,0,6.69A4.82,4.82,0,0,1,6.23,107H4.14Zm0-7.34H5.31c1.3,0,1.94-.57,1.94-1.7s-.64-1.69-1.94-1.69H4.14Z"/><path class="cls-2" d="M16.34,97.93v10.58h4.23v3H12.82V97.93Z"/><path class="cls-2" d="M30.71,109.14h-5l-.81,2.36H21.1l5.16-13.57h3.85l5.17,13.57H31.52Zm-.94-2.68-1.58-4.52-1.59,4.52Z"/><path class="cls-2" d="M40.1,105l-5-7h4.22l2.52,3.71,2.5-3.71H48.6l-5,7v6.52H40.1Z"/><path class="cls-2" d="M53.37,97.93V111.5H49.84V97.93Z"/><path class="cls-2" d="M56.21,111.5V97.93h3.53l6.52,8.3v-8.3h3.51V111.5H66.26l-6.52-8.3v8.3Z"/><path class="cls-2" d="M79.22,103.9h7a19.65,19.65,0,0,1-.09,2,6.93,6.93,0,0,1-.36,1.63,6.21,6.21,0,0,1-1,1.88,5.82,5.82,0,0,1-1.52,1.37,7,7,0,0,1-1.91.84,8.35,8.35,0,0,1-2.2.29,7.87,7.87,0,0,1-2.89-.52A6.51,6.51,0,0,1,74,109.89a6.77,6.77,0,0,1-1.46-2.27A7.86,7.86,0,0,1,72,104.7a8,8,0,0,1,.51-2.91A6.34,6.34,0,0,1,74,99.53a6.71,6.71,0,0,1,2.28-1.46,8,8,0,0,1,3-.52,7.36,7.36,0,0,1,3.72.92,6.33,6.33,0,0,1,2.54,2.84l-3.35,1.39a3.32,3.32,0,0,0-1.21-1.6,3,3,0,0,0-1.7-.49,3.37,3.37,0,0,0-1.44.3,3.27,3.27,0,0,0-1.11.84,4,4,0,0,0-.72,1.33,5.45,5.45,0,0,0-.26,1.72,5.55,5.55,0,0,0,.22,1.61,3.61,3.61,0,0,0,.68,1.27,3,3,0,0,0,1.12.84,3.71,3.71,0,0,0,1.54.3,4.17,4.17,0,0,0,1-.12,2.45,2.45,0,0,0,.87-.38,2.05,2.05,0,0,0,.64-.67,2.68,2.68,0,0,0,.35-1h-2.9Z"/><path class="cls-2" d="M7.22,125.9h7a19.65,19.65,0,0,1-.09,2,6.93,6.93,0,0,1-.36,1.63,6.21,6.21,0,0,1-1,1.88,5.67,5.67,0,0,1-1.52,1.37,7,7,0,0,1-1.91.84,8.35,8.35,0,0,1-2.2.29,7.87,7.87,0,0,1-2.89-.52A6.51,6.51,0,0,1,2,131.89a6.77,6.77,0,0,1-1.46-2.27A7.86,7.86,0,0,1,0,126.7a8,8,0,0,1,.51-2.91A6.48,6.48,0,0,1,2,121.53a6.71,6.71,0,0,1,2.28-1.46,8.05,8.05,0,0,1,3-.52,7.36,7.36,0,0,1,3.72.92,6.33,6.33,0,0,1,2.54,2.84l-3.35,1.39a3.32,3.32,0,0,0-1.21-1.6,3,3,0,0,0-1.7-.49,3.37,3.37,0,0,0-1.44.3,3.27,3.27,0,0,0-1.11.84A4.13,4.13,0,0,0,4,125.08a5.45,5.45,0,0,0-.26,1.72,5.54,5.54,0,0,0,.23,1.61,3.59,3.59,0,0,0,.67,1.27,3,3,0,0,0,1.12.84,3.71,3.71,0,0,0,1.54.3,4.17,4.17,0,0,0,1-.12,2.58,2.58,0,0,0,.88-.38,2.13,2.13,0,0,0,.63-.67,2.68,2.68,0,0,0,.35-1H7.22Z"/><path class="cls-2" d="M15.84,126.71a7.12,7.12,0,0,1,.56-2.81,7,7,0,0,1,3.91-3.8,8.62,8.62,0,0,1,6.06,0,7,7,0,0,1,2.38,1.52,6.91,6.91,0,0,1,1.56,2.28,7.36,7.36,0,0,1,0,5.63,6.91,6.91,0,0,1-1.56,2.28,7.14,7.14,0,0,1-2.38,1.52,8.62,8.62,0,0,1-6.06,0A7.15,7.15,0,0,1,18,131.81a7,7,0,0,1-1.55-2.28A7.13,7.13,0,0,1,15.84,126.71Zm3.69,0a3.57,3.57,0,0,0,.31,1.5,3.65,3.65,0,0,0,2,2A4,4,0,0,0,26,129.4a3.81,3.81,0,0,0,.83-1.19,3.57,3.57,0,0,0,.31-1.5,3.52,3.52,0,0,0-.31-1.49A3.7,3.7,0,0,0,26,124a4,4,0,0,0-1.23-.78,4,4,0,0,0-2.93,0,4,4,0,0,0-1.22.78,3.83,3.83,0,0,0-.82,1.19A3.52,3.52,0,0,0,19.53,126.71Z"/><path class="cls-2" d="M36.63,119.93v10.58h4.23v3H33.1V119.93Z"/><path class="cls-2" d="M50.45,122.92H46.21v2.26h3.87v3H46.21v5.33H42.68V119.93h7.77Z"/></g></g></svg>