<svg xmlns="http://www.w3.org/2000/svg" viewBox="0 0 199.4 200"><defs><style>.cls-1,.cls-2,.cls-3{fill:none;stroke:#231815;stroke-linecap:round;stroke-linejoin:round;stroke-width:5.67px;}.cls-2{stroke-dasharray:0.03 11.37;}.cls-3{stroke-dasharray:0.03 11.4;}.cls-4{fill:#231815;}</style></defs><g id="レイヤー_2" data-name="レイヤー 2"><g id="レイヤー_1-2" data-name="レイヤー 1"><polyline class="cls-1" points="196.57 197.15 196.57 197.16 196.55 197.16"/><line class="cls-2" x1="185.18" y1="197.17" x2="8.53" y2="197.17"/><polyline class="cls-1" points="2.85 197.16 2.83 197.16 2.83 197.15"/><line class="cls-3" x1="2.83" y1="185.75" x2="2.83" y2="8.55"/><polyline class="cls-1" points="2.83 2.85 2.83 2.83 2.85 2.83"/><line class="cls-2" x1="14.22" y1="2.83" x2="190.87" y2="2.83"/><polyline class="cls-1" points="196.55 2.83 196.57 2.83 196.57 2.85"/><line class="cls-3" x1="196.57" y1="14.25" x2="196.57" y2="191.45"/><path class="cls-4" d="M93.29,133.39c-3,0-4.55-1.56-5.8-2.81-1.07-1.07-1.85-1.84-3.49-1.84s-2.41.77-3.48,1.84a7.41,7.41,0,0,1-11.62,0c-1.07-1.07-1.84-1.84-3.48-1.84s-2.42.77-3.48,1.84a7.41,7.41,0,0,1-11.62,0c-1.07-1.07-1.84-1.84-3.48-1.84a1.65,1.65,0,0,1,0-3.3,7.57,7.57,0,0,1,5.8,2.81c1.07,1.07,1.85,1.84,3.49,1.84s2.41-.77,3.48-1.84a7.41,7.41,0,0,1,11.62,0c1.06,1.07,1.84,1.84,3.48,1.84s2.42-.77,3.48-1.84a7.41,7.41,0,0,1,11.62,0c1.07,1.07,1.84,1.84,3.48,1.84a1.65,1.65,0,0,1,0,3.3Z"/><path class="cls-4" d="M93.29,142.35c-3,0-4.55-1.56-5.8-2.81-1.07-1.07-1.85-1.84-3.49-1.84s-2.41.77-3.48,1.84a7.41,7.41,0,0,1-11.62,0c-1.07-1.07-1.84-1.84-3.48-1.84s-2.42.77-3.48,1.84a7.41,7.41,0,0,1-11.62,0c-1.07-1.07-1.84-1.84-3.48-1.84a1.65,1.65,0,0,1,0-3.3,7.57,7.57,0,0,1,5.8,2.81c1.07,1.07,1.85,1.84,3.49,1.84s2.41-.77,3.48-1.84a7.41,7.41,0,0,1,11.62,0c1.06,1.07,1.84,1.84,3.48,1.84s2.42-.77,3.48-1.84a7.41,7.41,0,0,1,11.62,0c1.07,1.07,1.84,1.84,3.48,1.84a1.65,1.65,0,1,1,0,3.3Z"/><path class="cls-4" d="M93.29,151.31a7.59,7.59,0,0,1-5.8-2.8c-1.07-1.08-1.85-1.85-3.49-1.85s-2.41.77-3.48,1.85a7.43,7.43,0,0,1-11.62,0c-1.07-1.08-1.84-1.85-3.48-1.85s-2.42.77-3.48,1.84a7.41,7.41,0,0,1-11.62,0c-1.07-1.07-1.84-1.84-3.48-1.84a1.65,1.65,0,0,1,0-3.3,7.57,7.57,0,0,1,5.8,2.81c1.07,1.07,1.85,1.85,3.49,1.85s2.41-.78,3.48-1.85a7.41,7.41,0,0,1,11.62,0c1.06,1.07,1.84,1.85,3.48,1.85s2.42-.78,3.48-1.85a7.41,7.41,0,0,1,11.62,0c1.07,1.07,1.84,1.85,3.48,1.85a1.65,1.65,0,1,1,0,3.29Z"/><path class="cls-4" d="M151.78,135.47c-38.54-20.15.18-39.62-13.89-49.8-10.24-7.41-24.5-9.9-38.1-8.81v24.46c1.86.53,3.11,1.51,3.11,2.63,0,1.7-2.85,3.08-6.37,3.08s-6.37-1.38-6.37-3.08,2.85-3.07,6.37-3.07c.31,0,.62,0,.92,0V46.49h2.34V61.73a29,29,0,0,1,4.46-.38c7.9,0,10.66,3.66,14.15,4s9.19-3.46,9.19-3.46V41.08s-5.7,3.84-9.19,3.47-6.25-4-14.15-4a31.76,31.76,0,0,0-8.81,1.37H93.58V77.61c-18.86,3.07-35,12.93-35,25.81-.07,20.43,49.26,19,46,23.85-.42.63-13.61,15.85-2,24.19A41.17,41.17,0,0,0,120,159C145.69,163.05,160.28,139.91,151.78,135.47Z"/></g></g></svg>