<svg xmlns="http://www.w3.org/2000/svg" viewBox="0 0 199.4 200"><defs><style>.cls-1,.cls-2,.cls-3{fill:none;stroke:#231815;stroke-linecap:round;stroke-linejoin:round;stroke-width:5.67px;}.cls-2{stroke-dasharray:0.03 11.37;}.cls-3{stroke-dasharray:0.03 11.4;}.cls-4{fill:#231815;}</style></defs><g id="レイヤー_2" data-name="レイヤー 2"><g id="レイヤー_1-2" data-name="レイヤー 1"><polyline class="cls-1" points="196.57 197.15 196.57 197.16 196.55 197.16"/><line class="cls-2" x1="185.18" y1="197.17" x2="8.53" y2="197.17"/><polyline class="cls-1" points="2.85 197.16 2.83 197.16 2.83 197.15"/><line class="cls-3" x1="2.83" y1="185.75" x2="2.83" y2="8.55"/><polyline class="cls-1" points="2.83 2.85 2.83 2.83 2.85 2.83"/><line class="cls-2" x1="14.22" y1="2.83" x2="190.87" y2="2.83"/><polyline class="cls-1" points="196.55 2.83 196.57 2.83 196.57 2.85"/><line class="cls-3" x1="196.57" y1="14.25" x2="196.57" y2="191.45"/><path class="cls-4" d="M125.78,103.88a172.85,172.85,0,0,1-22.29,6.65,2.58,2.58,0,0,1-.39,0,1.84,1.84,0,0,1-.39-3.63,171.63,171.63,0,0,0,22.13-6.64,133.88,133.88,0,0,0-11-27.3,4.55,4.55,0,0,1,.19-4.33l8.75-13.83A5.07,5.07,0,0,0,121.59,48L100.22,32.16a4.34,4.34,0,0,0-2.77-1,4.58,4.58,0,0,0-4.58,4.18A4.65,4.65,0,0,0,93.48,38L85.9,48a10.26,10.26,0,0,0-2.78-.39A10.66,10.66,0,0,0,74,63.71L53.58,90.59a2.76,2.76,0,0,0,.21,3.56l5,5.2A2.86,2.86,0,0,0,63,99.29l2.6-2.85A2.52,2.52,0,0,0,65,92.59l-5.86-2.85,17.54-23A10.53,10.53,0,0,0,83.12,69a10.66,10.66,0,0,0,6.45-19.13L96.27,41l11.44,11.54-16,16.9a13.89,13.89,0,0,0-3.22,15c3.76,9.64,5.92,21.69,5.92,34.74,0,16.4-3.55,31.14-9.26,41.59a5.12,5.12,0,0,0-.73,2.69,2.75,2.75,0,0,0,.14.81c2,5.87,6.83,5.29,9.15,3,8.56-8.48,15.71-26.29,19.22-43.82a126.42,126.42,0,0,1,2.54,25.32,131,131,0,0,1-.78,14.08,5.68,5.68,0,0,0,5.39,5.75,5.4,5.4,0,0,0,5.44-4.89,125.54,125.54,0,0,0,3.86-30.85A121.17,121.17,0,0,0,125.78,103.88Z"/></g></g></svg>