<svg xmlns="http://www.w3.org/2000/svg" viewBox="0 0 199.4 200"><defs><style>.cls-1{fill:#231815;}.cls-2,.cls-3,.cls-4{fill:none;stroke:#231815;stroke-linecap:round;stroke-linejoin:round;stroke-width:5.67px;}.cls-3{stroke-dasharray:0.03 11.37;}.cls-4{stroke-dasharray:0.03 11.4;}</style></defs><g id="レイヤー_2" data-name="レイヤー 2"><g id="レイヤー_1-2" data-name="レイヤー 1"><path class="cls-1" d="M165.39,102.33H140.74V50H108.91a54.91,54.91,0,0,0-50.1,32.6l-8.27,18.58-3.48,2.08a21.22,21.22,0,0,0-10.33,18.22v4.12a15.5,15.5,0,1,0,28.24,9h58.38a15.48,15.48,0,1,0,29.76-6.19Zm-11.09,4.61-2.09,3.57H121v-3.57ZM49.49,143.46a9,9,0,1,1,9-9A9,9,0,0,1,49.49,143.46ZM117,93.84H99.7v9H105l-8.61,24H78.78L63.41,111.47,86.55,88.81l3.33,3.34a2.49,2.49,0,0,0,3.55,0,2.52,2.52,0,0,0,0-3.56L83.37,78.5a2.51,2.51,0,0,0-3.55,3.56l3.33,3.34L60,108.05l-3.21-3.22,8.57-19.25a47.7,47.7,0,0,1,43.54-28.34h24.65v45.09H122.49a4.52,4.52,0,0,0,2.26-2.82L129,83.23a4.49,4.49,0,1,0-8.67-2.34Zm21.85,49.62a9,9,0,1,1,9-9A9,9,0,0,1,138.82,143.46ZM121,118.27v-3.56H154.3l-2.09,3.56Z"/><polyline class="cls-2" points="196.57 197.15 196.57 197.16 196.55 197.16"/><line class="cls-3" x1="185.18" y1="197.17" x2="8.53" y2="197.17"/><polyline class="cls-2" points="2.85 197.16 2.83 197.16 2.83 197.15"/><line class="cls-4" x1="2.83" y1="185.75" x2="2.83" y2="8.55"/><polyline class="cls-2" points="2.83 2.85 2.83 2.83 2.85 2.83"/><line class="cls-3" x1="14.22" y1="2.83" x2="190.87" y2="2.83"/><polyline class="cls-2" points="196.55 2.83 196.57 2.83 196.57 2.85"/><line class="cls-4" x1="196.57" y1="14.25" x2="196.57" y2="191.45"/></g></g></svg>